<svg width="25" height="25" viewBox="0 0 25 25" fill="none" xmlns="http://www.w3.org/2000/svg">
<mask id="mask0_0_5469" style="mask-type:luminance" maskUnits="userSpaceOnUse" x="0" y="0" width="25" height="25">
<rect width="24.5" height="24.5" fill="white"/>
</mask>
<g mask="url(#mask0_0_5469)">
<path fill-rule="evenodd" clip-rule="evenodd" d="M12.2498 2.04175C6.62096 2.04175 2.0415 6.62121 2.0415 12.2501C2.0415 17.879 6.62096 22.4584 12.2498 22.4584C17.8787 22.4584 22.4582 17.879 22.4582 12.2501C22.4582 6.62121 17.8787 2.04175 12.2498 2.04175ZM12.2498 20.4168C7.74693 20.4168 4.08316 16.753 4.08316 12.2501C4.08316 7.74721 7.74693 4.08344 12.2498 4.08344C16.7527 4.08344 20.4165 7.74721 20.4165 12.2501C20.4165 16.753 16.7527 20.4168 12.2498 20.4168Z" fill="#5156BE"/>
<path fill-rule="evenodd" clip-rule="evenodd" d="M10.2073 13.8701L7.86036 11.5273L6.41895 12.9728L10.2093 16.755L17.055 9.90928L15.6115 8.46582L10.2073 13.8701Z" fill="#5156BE"/>
</g>
</svg>
