<svg width="25" height="25" viewBox="0 0 25 25" fill="none" xmlns="http://www.w3.org/2000/svg">
<mask id="mask0_0_5447" style="mask-type:luminance" maskUnits="userSpaceOnUse" x="0" y="0" width="25" height="25">
<rect width="24.5" height="24.5" fill="white"/>
</mask>
<g mask="url(#mask0_0_5447)">
<path fill-rule="evenodd" clip-rule="evenodd" d="M12.2498 2.04199C6.62096 2.04199 2.0415 6.62145 2.0415 12.2503C2.0415 17.8792 6.62096 22.4587 12.2498 22.4587C17.8787 22.4587 22.4582 17.8792 22.4582 12.2503C22.4582 6.62145 17.8787 2.04199 12.2498 2.04199ZM12.2498 20.4171C7.74693 20.4171 4.08316 16.7533 4.08316 12.2504C4.08316 7.74751 7.74693 4.08374 12.2498 4.08374C16.7527 4.08374 20.4165 7.74751 20.4165 12.2504C20.4165 16.7533 16.7527 20.4171 12.2498 20.4171Z" fill="#495057"/>
<path fill-rule="evenodd" clip-rule="evenodd" d="M10.2073 13.8701L7.86036 11.5273L6.41895 12.9728L10.2093 16.755L17.055 9.90928L15.6115 8.46582L10.2073 13.8701Z" fill="#495057"/>
</g>
</svg>
