<svg width="20" height="20" viewBox="0 0 20 20" fill="none" xmlns="http://www.w3.org/2000/svg">
<mask id="mask0_0_5322" style="mask-type:luminance" maskUnits="userSpaceOnUse" x="0" y="0" width="20" height="20">
<rect width="20" height="20" fill="white"/>
</mask>
<g mask="url(#mask0_0_5322)">
<path fill-rule="evenodd" clip-rule="evenodd" d="M9.99984 1.6665C14.6082 1.6665 18.3332 5.3915 18.3332 9.99984C18.3332 14.6082 14.6082 18.3332 9.99984 18.3332C5.3915 18.3332 1.6665 14.6082 1.6665 9.99984C1.6665 5.3915 5.3915 1.6665 9.99984 1.6665ZM12.9915 5.83313L9.9998 8.8248L7.00813 5.83313L5.83313 7.00813L8.8248 9.9998L5.83313 12.9915L7.00813 14.1665L9.9998 11.1748L12.9915 14.1665L14.1665 12.9915L11.1748 9.9998L14.1665 7.00813L12.9915 5.83313Z" fill="#FD625E"/>
</g>
</svg>
