<svg width="16" height="16" viewBox="0 0 16 16" fill="none" xmlns="http://www.w3.org/2000/svg">
<mask id="mask0_1_1660" style="mask-type:luminance" maskUnits="userSpaceOnUse" x="0" y="0" width="16" height="16">
<rect width="16" height="16" fill="white"/>
</mask>
<g mask="url(#mask0_1_1660)">
<path fill-rule="evenodd" clip-rule="evenodd" d="M8 1.33331C6.162 1.33331 4.66667 2.82865 4.66667 4.66665C4.66667 6.50465 6.162 7.99998 8 7.99998C9.838 7.99998 11.3333 6.50465 11.3333 4.66665C11.3333 2.82865 9.838 1.33331 8 1.33331V1.33331ZM8 6.66664C6.89733 6.66664 6 5.76931 6 4.66664C6 3.56397 6.89733 2.66664 8 2.66664C9.10267 2.66664 10 3.56397 10 4.66664C10 5.76931 9.10267 6.66664 8 6.66664V6.66664ZM14 14V13.3333C14 10.7606 11.906 8.66664 9.33333 8.66664H6.66667C4.09333 8.66664 2 10.7606 2 13.3333V14H3.33333V13.3333C3.33333 11.4953 4.82867 9.99997 6.66667 9.99997H9.33333C11.1713 9.99997 12.6667 11.4953 12.6667 13.3333V14H14V14Z" fill="#545A6D"/>
</g>
</svg>
