<svg width="16" height="16" viewBox="0 0 16 16" fill="none" xmlns="http://www.w3.org/2000/svg">
<mask id="mask0_1_1645" style="mask-type:luminance" maskUnits="userSpaceOnUse" x="0" y="0" width="16" height="16">
<rect width="16" height="16" fill="white"/>
</mask>
<g mask="url(#mask0_1_1645)">
<path fill-rule="evenodd" clip-rule="evenodd" d="M13.2687 5.72404C13.236 5.65337 13.1954 5.58604 13.138 5.52871L9.13802 1.52871C9.08069 1.47137 9.01335 1.43071 8.94269 1.39804C8.92269 1.38871 8.90135 1.38337 8.88002 1.37604C8.82402 1.35737 8.76669 1.34537 8.70735 1.34204C8.69335 1.34071 8.68069 1.33337 8.66669 1.33337H4.00002C3.26469 1.33337 2.66669 1.93137 2.66669 2.66671V13.3334C2.66669 14.0687 3.26469 14.6667 4.00002 14.6667H12C12.7354 14.6667 13.3334 14.0687 13.3334 13.3334V6.00004C13.3334 5.98604 13.326 5.97337 13.3247 5.95871C13.3214 5.89937 13.31 5.84204 13.2907 5.78604C13.284 5.76471 13.278 5.74404 13.2687 5.72404V5.72404ZM11.0574 5.33337H9.33335V3.60938L11.0574 5.33337V5.33337ZM4.00002 13.3334V2.66672H8.00002V6.00005C8.00002 6.36872 8.29802 6.66672 8.66669 6.66672H12L12.0014 13.3334H4.00002V13.3334Z" fill="#545A6D"/>
<path fill-rule="evenodd" clip-rule="evenodd" d="M5.33331 8.00003H10.6666V9.33336H5.33331V8.00003ZM5.33331 10.6667H10.6666V12.0001H5.33331V10.6667ZM5.33331 5.33337H6.66665V6.66671H5.33331V5.33337Z" fill="#545A6D"/>
</g>
</svg>
