<svg width="16" height="16" viewBox="0 0 16 16" fill="none" xmlns="http://www.w3.org/2000/svg">
<mask id="mask0_1_1594" style="mask-type:luminance" maskUnits="userSpaceOnUse" x="0" y="0" width="16" height="16">
<rect width="16" height="16" fill="white"/>
</mask>
<g mask="url(#mask0_1_1594)">
<path fill-rule="evenodd" clip-rule="evenodd" d="M14.2706 4.05733L8.27065 1.39066C8.09731 1.31399 7.90198 1.31399 7.72865 1.39066L1.72865 4.05733C1.71531 4.06333 1.70598 4.07333 1.69265 4.08066C1.67398 4.08999 1.65398 4.09599 1.63665 4.10733C1.62198 4.11733 1.61065 4.12999 1.59665 4.14066C1.57798 4.15466 1.55998 4.16999 1.54331 4.18599C1.51598 4.21199 1.49198 4.23999 1.46998 4.26999C1.45665 4.28866 1.44265 4.30533 1.43065 4.32399C1.40998 4.35933 1.39465 4.39599 1.37998 4.43399C1.37398 4.45199 1.36465 4.46866 1.35931 4.48666C1.34331 4.54466 1.33331 4.60466 1.33331 4.66666V11.3333C1.33331 11.5973 1.48798 11.8353 1.72931 11.9427L7.72931 14.6093C7.81598 14.648 7.90798 14.6667 7.99998 14.6667C8.09265 14.6667 8.18198 14.6407 8.26798 14.6027L8.27065 14.6093L14.2706 11.9427C14.512 11.8353 14.6666 11.5973 14.6666 11.3333V4.66666C14.6666 4.40266 14.512 4.16466 14.2706 4.05733V4.05733ZM7.99998 2.72998L12.3586 4.66665L7.99998 6.60331L7.12798 6.21598L3.64198 4.66665L7.99998 2.72998V2.72998ZM2.66665 10.9007V5.69266L7.33331 7.76666V12.974L2.66665 10.9007V10.9007ZM8.66665 12.974V7.76666L13.3333 5.69266V10.9007L8.66665 12.974V12.974Z" fill="#545A6D"/>
</g>
</svg>
