<svg width="16" height="16" viewBox="0 0 16 16" fill="none" xmlns="http://www.w3.org/2000/svg">
<mask id="mask0_1_1672" style="mask-type:luminance" maskUnits="userSpaceOnUse" x="0" y="0" width="16" height="16">
<rect width="16" height="16" fill="white"/>
</mask>
<g mask="url(#mask0_1_1672)">
<path fill-rule="evenodd" clip-rule="evenodd" d="M6.66667 2H2.66667C2.29867 2 2 2.29867 2 2.66667V6.66667C2 7.03467 2.29867 7.33333 2.66667 7.33333H6.66667C7.03467 7.33333 7.33333 7.03467 7.33333 6.66667V2.66667C7.33333 2.29867 7.03467 2 6.66667 2V2ZM6 5.99999H3.33333V3.33333H6V5.99999V5.99999ZM9.33333 7.33333H13.3333C13.702 7.33333 14 7.03467 14 6.66667V2.66667C14 2.29867 13.702 2 13.3333 2H9.33333C8.96467 2 8.66667 2.29867 8.66667 2.66667V6.66667C8.66667 7.03467 8.96467 7.33333 9.33333 7.33333V7.33333ZM10 3.33333H12.6667V5.99999H10V3.33333V3.33333ZM2 13.3333C2 13.7013 2.29867 14 2.66667 14H6.66667C7.03467 14 7.33333 13.7013 7.33333 13.3333V9.33334C7.33333 8.96534 7.03467 8.66667 6.66667 8.66667H2.66667C2.29867 8.66667 2 8.96534 2 9.33334V13.3333V13.3333ZM3.33333 10H6V12.6667H3.33333V10V10ZM8.66667 13.3333C8.66667 13.7013 8.96467 14 9.33333 14H13.3333C13.702 14 14 13.7013 14 13.3333V9.33334C14 8.96534 13.702 8.66667 13.3333 8.66667H9.33333C8.96467 8.66667 8.66667 8.96534 8.66667 9.33334V13.3333V13.3333ZM10 10H12.6667V12.6667H10V10V10Z" fill="#545A6D"/>
</g>
</svg>
