<svg width="16" height="16" viewBox="0 0 16 16" fill="none" xmlns="http://www.w3.org/2000/svg">
<mask id="mask0_1_1685" style="mask-type:luminance" maskUnits="userSpaceOnUse" x="0" y="0" width="16" height="16">
<rect width="16" height="16" fill="white"/>
</mask>
<g mask="url(#mask0_1_1685)">
<path fill-rule="evenodd" clip-rule="evenodd" d="M3.33535 14.6666H6.00201H10.002H12.6687C13.404 14.6666 14.002 14.0686 14.002 13.3333V7.3333C14.002 7.15663 13.932 6.98663 13.8067 6.86196L8.47335 1.52863C8.21268 1.26796 7.79135 1.26796 7.53068 1.52863L2.19735 6.86196C2.07201 6.98663 2.00201 7.15663 2.00201 7.3333V13.3333C2.00201 14.0686 2.60001 14.6666 3.33535 14.6666V14.6666ZM6.66868 13.3333V9.99997H9.33535V13.3333H6.66868V13.3333ZM3.33535 7.60929L8.00201 2.94263L12.6687 7.60929L12.6693 13.3333H10.6687V9.99996C10.6687 9.26463 10.0707 8.66663 9.33535 8.66663H6.66868C5.93335 8.66663 5.33535 9.26463 5.33535 9.99996V13.3333H3.33535V7.60929H3.33535Z" fill="#545A6D"/>
</g>
</svg>
