<svg width="38" height="38" viewBox="0 0 38 38" fill="none" xmlns="http://www.w3.org/2000/svg">
<rect width="38" height="38" rx="19" fill="#5156BE" fill-opacity="0.247059"/>
<mask id="mask0_0_7710" style="mask-type:luminance" maskUnits="userSpaceOnUse" x="7" y="7" width="24" height="24">
<rect x="7" y="7" width="24" height="24" fill="white"/>
</mask>
<g mask="url(#mask0_0_7710)">
<path fill-rule="evenodd" clip-rule="evenodd" d="M19.55 22.92L20.16 20.78L21.81 20.19L23.25 14.63L21.56 15.31L23.25 9H15L12.38 18.77L10.72 19.34L9.21997 24.91L11 24.27L9.65997 29H27.16L28.78 22.92H19.55ZM26.39 28H11L12.46 22.65L10.72 23.3L11.58 20.11L13.24 19.54L15.74 10H22L20.13 17L21.83 16.3L21 19.42L19.33 20L18.22 23.91H27.5L26.39 28Z" fill="#5156BE"/>
</g>
</svg>
