<svg width="28" height="28" viewBox="0 0 28 28" fill="none" xmlns="http://www.w3.org/2000/svg">
<mask id="mask0_0_5838" style="mask-type:luminance" maskUnits="userSpaceOnUse" x="0" y="0" width="28" height="28">
<rect width="28" height="28" fill="white"/>
</mask>
<g mask="url(#mask0_0_5838)">
<path fill-rule="evenodd" clip-rule="evenodd" d="M23.3335 6.99992H19.8335V4.66659C19.8335 3.37975 18.787 2.33325 17.5002 2.33325H10.5002C9.21333 2.33325 8.16683 3.37975 8.16683 4.66659V6.99992H4.66683C3.38 6.99992 2.3335 8.04642 2.3335 9.33325V22.1666C2.3335 23.4534 3.38 24.4999 4.66683 24.4999H23.3335C24.6203 24.4999 25.6668 23.4534 25.6668 22.1666V9.33325C25.6668 8.04642 24.6203 6.99992 23.3335 6.99992ZM17.5001 4.6666V6.99993H10.5001V4.6666H17.5001ZM4.66687 9.33325H9.33354H18.6669H19.8335H23.3335V13.9999H19.8335V11.6666H17.5002V13.9999H10.5002V11.6666H8.16687V13.9999H4.66687V9.33325ZM4.66687 22.1666V16.3333H8.16687V18.6666H10.5002V16.3333H17.5002V18.6666H19.8335V16.3333H23.3347V22.1666H4.66687Z" fill="#5156BE"/>
</g>
</svg>
