<svg width="28" height="28" viewBox="0 0 28 28" fill="none" xmlns="http://www.w3.org/2000/svg">
<mask id="mask0_268_13945" style="mask-type:luminance" maskUnits="userSpaceOnUse" x="0" y="0" width="28" height="28">
<rect width="28" height="28" fill="white"/>
</mask>
<g mask="url(#mask0_268_13945)">
<path fill-rule="evenodd" clip-rule="evenodd" d="M14.0002 11.6667C15.343 11.6667 16.3335 10.6773 16.3335 9.33333C16.3335 7.98933 15.343 7 14.0002 7C12.6585 7 11.6669 7.98933 11.6669 9.33333C11.6669 10.6773 12.6585 11.6667 14.0002 11.6667ZM14.0002 12.8333C11.423 12.8333 9.3335 14.714 9.3335 17.0333V17.4836H18.6668V17.0333C18.6668 14.714 16.5773 12.8333 14.0002 12.8333Z" fill="#5156BE"/>
<path fill-rule="evenodd" clip-rule="evenodd" d="M22.1667 2.33325H5.83333C4.5465 2.33325 3.5 3.37975 3.5 4.66659V19.8333C3.5 21.1201 4.5465 22.1666 5.83333 22.1666H10.5L14 25.6666L17.5 22.1666H22.1667C23.4535 22.1666 24.5 21.1201 24.5 19.8333V4.66659C24.5 3.37975 23.4535 2.33325 22.1667 2.33325ZM16.3334 19.8332L14 22.1666L11.6667 19.8332H5.83337V4.66656H22.1667L22.169 19.8332H16.3334Z" fill="#5156BE"/>
</g>
</svg>
