<svg width="28" height="28" viewBox="0 0 28 28" fill="none" xmlns="http://www.w3.org/2000/svg">
<mask id="mask0_0_5797" style="mask-type:luminance" maskUnits="userSpaceOnUse" x="0" y="0" width="28" height="28">
<rect width="28" height="28" fill="white"/>
</mask>
<g mask="url(#mask0_0_5797)">
<path fill-rule="evenodd" clip-rule="evenodd" d="M14.0002 9.33325C11.4708 9.33325 9.3335 11.4706 9.3335 13.9999C9.3335 16.5293 11.4708 18.6666 14.0002 18.6666C16.5295 18.6666 18.6668 16.5293 18.6668 13.9999C18.6668 11.4706 16.5295 9.33325 14.0002 9.33325ZM14.0002 16.3332C12.7577 16.3332 11.6669 15.2424 11.6669 13.9999C11.6669 12.7574 12.7577 11.6666 14.0002 11.6666C15.2427 11.6666 16.3335 12.7574 16.3335 13.9999C16.3335 15.2424 15.2427 16.3332 14.0002 16.3332Z" fill="#5156BE"/>
<path fill-rule="evenodd" clip-rule="evenodd" d="M23.3335 5.83325H20.3165L17.1583 2.67509C16.9402 2.45575 16.6438 2.33325 16.3335 2.33325H11.6668C11.3565 2.33325 11.0602 2.45575 10.842 2.67509L7.68383 5.83325H4.66683C3.38 5.83325 2.3335 6.87975 2.3335 8.16659V20.9999C2.3335 22.2868 3.38 23.3333 4.66683 23.3333H23.3335C24.6203 23.3333 25.6668 22.2868 25.6668 20.9999V8.16659C25.6668 6.87975 24.6203 5.83325 23.3335 5.83325ZM4.66687 20.9999V8.16656H8.16687C8.4772 8.16656 8.77354 8.04406 8.9917 7.82473L12.1499 4.66656H15.8505L19.0087 7.82473C19.2269 8.04406 19.5232 8.16656 19.8335 8.16656H23.3335L23.3359 20.9999H4.66687Z" fill="#5156BE"/>
</g>
</svg>
