<svg width="28" height="28" viewBox="0 0 28 28" fill="none" xmlns="http://www.w3.org/2000/svg">
<mask id="mask0_268_13912" style="mask-type:luminance" maskUnits="userSpaceOnUse" x="0" y="0" width="28" height="28">
<rect width="28" height="28" fill="white"/>
</mask>
<g mask="url(#mask0_268_13912)">
<path fill-rule="evenodd" clip-rule="evenodd" d="M14.0002 2.3335C10.8852 2.3335 7.9545 3.54683 5.75066 5.75066C3.54683 7.9545 2.3335 10.8852 2.3335 14.0002C2.3335 17.1152 3.54683 20.0458 5.75066 22.2497C7.9545 24.4535 10.8852 25.6668 14.0002 25.6668C17.1152 25.6668 20.0458 24.4535 22.2497 22.2497C24.4535 20.0458 25.6668 17.1152 25.6668 14.0002C25.6668 10.8852 24.4535 7.9545 22.2497 5.75066C20.0458 3.54683 17.1152 2.3335 14.0002 2.3335ZM20.6 20.6C18.8372 22.3628 16.4934 23.3335 14.0002 23.3335C11.507 23.3335 9.1632 22.3628 7.40037 20.6C5.63754 18.8371 4.66687 16.4933 4.66687 14.0001C4.66687 11.507 5.63754 9.16315 7.40037 7.40031C8.88437 5.91515 10.7825 5.00165 12.8335 4.74731V14.0001C12.8335 14.6453 13.355 15.1668 14.0002 15.1668H23.253C22.9987 17.2178 22.0852 19.116 20.6 20.6ZM15.1669 12.8335V4.73914C17.2179 4.99347 19.1149 5.9163 20.6 7.4003C22.0852 8.88547 23.008 10.7825 23.2612 12.8335H15.1669Z" fill="#5156BE"/>
</g>
</svg>
