<svg width="28" height="28" viewBox="0 0 28 28" fill="none" xmlns="http://www.w3.org/2000/svg">
<mask id="mask0_0_5762" style="mask-type:luminance" maskUnits="userSpaceOnUse" x="0" y="0" width="28" height="28">
<rect width="28" height="28" fill="white"/>
</mask>
<g mask="url(#mask0_0_5762)">
<path fill-rule="evenodd" clip-rule="evenodd" d="M5.83675 25.6666H10.5034H17.5034H22.1701C23.4569 25.6666 24.5034 24.6201 24.5034 23.3333V12.8333C24.5034 12.5241 24.3809 12.2266 24.1616 12.0085L14.8283 2.67513C14.3721 2.21897 13.6348 2.21897 13.1786 2.67513L3.84525 12.0085C3.62592 12.2266 3.50342 12.5241 3.50342 12.8333V23.3333C3.50342 24.6201 4.54992 25.6666 5.83675 25.6666ZM11.67 23.3333V17.5H16.3367V23.3333H11.67ZM5.83679 13.3163L14.0035 5.14966L22.1701 13.3163L22.1713 23.3333H18.6701V17.5C18.6701 16.2132 17.6236 15.1667 16.3368 15.1667H11.6701C10.3833 15.1667 9.33679 16.2132 9.33679 17.5V23.3333H5.83679V13.3163H5.83679Z" fill="#5156BE"/>
</g>
</svg>
