<svg width="48" height="48" viewBox="0 0 48 48" fill="none" xmlns="http://www.w3.org/2000/svg">
<rect width="48" height="48" rx="24" fill="#E9E9EF" fill-opacity="0.4"/>
<mask id="mask0_10_1800" style="mask-type:luminance" maskUnits="userSpaceOnUse" x="12" y="12" width="24" height="24">
<rect x="12" y="12" width="24" height="24" fill="white"/>
</mask>
<g mask="url(#mask0_10_1800)">
<path fill-rule="evenodd" clip-rule="evenodd" d="M18 16H20V14H22V16H24V14H26V16.03C28.25 16.28 30 18.18 30 20.5C30 21.8 29.45 23 28.56 23.8C29.73 24.61 30.5 25.97 30.5 27.5C30.5 30 28.5 32 26 32V34H24V32H22V34H20V32H18L18.5 30H20V18H18V16M22 25V30H26C27.38 30 28.5 28.88 28.5 27.5C28.5 26.12 27.38 25 26 25H22M22 18V23H25.5C26.88 23 28 21.88 28 20.5C28 19.12 26.88 18 25.5 18V18H22V18Z" fill="white"/>
</g>
</svg>
