<svg width="346" height="287" viewBox="0 0 346 287" fill="none" xmlns="http://www.w3.org/2000/svg">
<mask id="mask0_23_1873" style="mask-type:luminance" maskUnits="userSpaceOnUse" x="0" y="0" width="346" height="287">
<rect width="346" height="286.939" fill="white"/>
</mask>
<g mask="url(#mask0_23_1873)">
<path opacity="0.1" fill-rule="evenodd" clip-rule="evenodd" d="M323.154 158.553C309.865 180.052 312.355 209.34 318.192 232.433C320.145 240.166 322.395 248.328 320.725 256.981C318.683 267.562 311.237 275.871 303.702 280.63C289.964 289.283 274.277 289.043 262.854 279.995C252.99 272.181 246.494 258.55 236.421 251.155C219.581 238.775 196.455 246.278 176.376 257.848C162.176 266.014 146.546 276.405 133.421 270.522C124.187 266.39 118.429 254.734 115.742 242.05C114.445 235.927 113.66 229.237 110.686 224.572C108.916 221.798 106.483 219.942 103.961 218.42C80.9393 204.539 49.7912 216.144 27.5903 200.425C12.5949 189.812 4.07068 167.89 1.26869 144.45C-1.53331 121.009 0.770634 95.9272 3.65504 71.2323C5.70816 53.6751 8.48508 34.8924 17.7009 20.6137C27.4505 5.51082 42.8185 -1.24335 56.1763 0.189896C69.5342 1.62314 81.1327 10.0865 91.1296 20.4309C103.624 33.3588 114.893 49.8698 131.063 54.0406C142.078 56.882 154.106 53.5927 165.82 51.733C185.376 48.6229 204.661 49.5151 223.809 50.6832C242.14 51.8011 260.582 53.1914 277.663 59.641C289.749 64.2094 299.026 73.719 310.305 79.9035C317.658 83.9345 325.953 84.4469 332.804 89.8215C341.242 96.4431 348.544 108.665 345.165 124.116C341.944 138.813 330.206 147.144 323.154 158.553V158.553Z" fill="#5156BE"/>
<path d="M238.095 109.959C238.095 109.959 274.284 79.6348 282.332 64.3456C290.38 49.0565 300.624 35.8813 300.624 35.8813" stroke="#535461" stroke-width="2"/>
<path fill-rule="evenodd" clip-rule="evenodd" d="M295.865 70.0607L280.21 66.5313C280.21 66.5313 283.905 83.0423 295.865 70.0607V70.0607Z" fill="#5156BE"/>
<path fill-rule="evenodd" clip-rule="evenodd" d="M271.944 53.2057L280.952 66.6961C280.952 66.6961 263.341 67.9681 271.944 53.2057V53.2057Z" fill="#5156BE"/>
<path fill-rule="evenodd" clip-rule="evenodd" d="M302.024 57.38L287.717 54.8718C287.717 54.8718 296.703 68.5414 302.024 57.38V57.38Z" fill="#5156BE"/>
<path fill-rule="evenodd" clip-rule="evenodd" d="M280.852 45.3228L287.9 54.5529C287.9 54.5529 275.423 55.7353 280.852 45.3228V45.3228Z" fill="#5156BE"/>
<path fill-rule="evenodd" clip-rule="evenodd" d="M295.116 43.4847C295.116 43.4847 307.299 44.0651 308.732 45.2297C310.165 46.3942 306.915 53.22 302.282 52.1057C297.649 50.9913 295.116 43.4847 295.116 43.4847V43.4847Z" fill="#5156BE"/>
<path fill-rule="evenodd" clip-rule="evenodd" d="M290.247 32.5956C290.247 32.5956 295.224 41.6644 295.037 43.3915C294.851 45.1186 287.452 47.057 285.958 40.525C284.463 33.993 290.247 32.5956 290.247 32.5956V32.5956Z" fill="#5156BE"/>
<ellipse cx="302.493" cy="38.5019" rx="3.3885" ry="3.38851" fill="#FFD037"/>
<ellipse cx="297.19" cy="35.0156" rx="3.3885" ry="3.38851" fill="#FFD037"/>
<path fill-rule="evenodd" clip-rule="evenodd" d="M125.216 228.829C125.216 228.829 131.024 211.551 94.2037 190.722C94.2037 190.722 56.8175 179.819 60.6407 142.375C60.6407 142.375 17.543 173.95 46.7059 214.17C75.8689 254.39 101.04 245.612 101.04 245.612L125.216 228.829Z" fill="#5156BE"/>
<path d="M113.99 236.633C113.99 236.633 96.0241 217.216 78.8037 209.709C75.3637 208.161 72.2028 206.055 69.4482 203.478C58.4695 193.445 53.6825 178.307 56.5131 163.705L60.6516 142.375" stroke="#535461" stroke-width="2"/>
<rect x="69.1792" y="11.8959" width="204.456" height="237.392" fill="url(#paint0_linear_23_1873)"/>
<rect x="71.562" y="14.6585" width="199.694" height="231.86" fill="#F7F7FD"/>
<rect x="83.6226" y="40.7938" width="50.4825" height="4.02026" fill="#E2E2EC"/>
<rect x="83.6226" y="50.6223" width="86.2205" height="4.02026" fill="#E2E2EC"/>
<rect x="225.865" y="36.9527" width="35.8276" height="30.9151" fill="white"/>
<path fill-rule="evenodd" clip-rule="evenodd" d="M261.503 37.1318V67.6886H226.03V37.1318H261.503M261.861 36.7735H225.672V68.0469H261.861V36.7735V36.7735Z" fill="#E2E2EC"/>
<rect x="189.679" y="36.9527" width="35.8276" height="30.9151" fill="white"/>
<path fill-rule="evenodd" clip-rule="evenodd" d="M225.314 37.1318V67.6886H189.841V37.1318H225.314M225.672 36.7735H189.482V68.0469H225.672V36.7735V36.7735Z" fill="#E2E2EC"/>
<rect x="225.865" y="68.2261" width="35.8276" height="30.9151" fill="white"/>
<path fill-rule="evenodd" clip-rule="evenodd" d="M261.503 68.4053V98.9621H226.03V68.4053H261.503M261.861 68.0469H225.672V99.3204H261.861V68.0469V68.0469Z" fill="#E2E2EC"/>
<rect x="189.679" y="68.2261" width="35.8276" height="30.9151" fill="white"/>
<path fill-rule="evenodd" clip-rule="evenodd" d="M225.314 68.4053V98.9621H189.841V68.4053H225.314M225.672 68.0469H189.482V99.3204H225.672V68.0469V68.0469Z" fill="#E2E2EC"/>
<rect x="153.494" y="68.2261" width="35.8276" height="30.9151" fill="white"/>
<path fill-rule="evenodd" clip-rule="evenodd" d="M189.142 68.4053V98.9621H153.669V68.4053H189.142M189.5 68.0469H153.311V99.3204H189.5V68.0469V68.0469Z" fill="#E2E2EC"/>
<rect x="117.308" y="68.2261" width="35.8276" height="30.9151" fill="white"/>
<path fill-rule="evenodd" clip-rule="evenodd" d="M152.956 68.4053V98.9621H117.483V68.4053H152.956M153.314 68.0469H117.125V99.3204H153.314V68.0469V68.0469Z" fill="#E2E2EC"/>
<rect x="81.1216" y="68.2261" width="35.8276" height="30.9151" fill="white"/>
<path fill-rule="evenodd" clip-rule="evenodd" d="M116.77 68.4053V98.9621H81.2973V68.4053H116.77M117.128 68.0469H80.939V99.3204H117.128V68.0469V68.0469Z" fill="#E2E2EC"/>
<rect x="225.865" y="99.496" width="35.8276" height="30.9151" fill="white"/>
<path fill-rule="evenodd" clip-rule="evenodd" d="M261.503 99.6787V130.236H226.03V99.6787H261.503M261.861 99.3204H225.672V130.594H261.861V99.3204V99.3204Z" fill="#E2E2EC"/>
<rect x="189.679" y="99.496" width="35.8276" height="30.9151" fill="white"/>
<path fill-rule="evenodd" clip-rule="evenodd" d="M225.314 99.6787V130.236H189.841V99.6787H225.314M225.672 99.3204H189.482V130.594H225.672V99.3204V99.3204Z" fill="#E2E2EC"/>
<rect x="153.494" y="99.496" width="35.8276" height="30.9151" fill="white"/>
<path fill-rule="evenodd" clip-rule="evenodd" d="M189.142 99.6787V130.236H153.669V99.6787H189.142M189.5 99.3204H153.311V130.594H189.5V99.3204V99.3204Z" fill="#E2E2EC"/>
<rect x="117.308" y="99.496" width="35.8276" height="30.9151" fill="white"/>
<path fill-rule="evenodd" clip-rule="evenodd" d="M152.956 99.6787V130.236H117.483V99.6787H152.956M153.314 99.3204H117.125V130.594H153.314V99.3204V99.3204Z" fill="#E2E2EC"/>
<rect x="81.1216" y="99.496" width="35.8276" height="30.9151" fill="white"/>
<path fill-rule="evenodd" clip-rule="evenodd" d="M116.77 99.6787V130.236H81.2973V99.6787H116.77M117.128 99.3204H80.939V130.594H117.128V99.3204V99.3204Z" fill="#E2E2EC"/>
<rect x="225.865" y="130.769" width="35.8276" height="30.9151" fill="white"/>
<path fill-rule="evenodd" clip-rule="evenodd" d="M261.503 130.949V161.505H226.03V130.949H261.503M261.861 130.59H225.672V161.864H261.861V130.59V130.59Z" fill="#E2E2EC"/>
<rect x="189.679" y="130.769" width="35.8276" height="30.9151" fill="white"/>
<path fill-rule="evenodd" clip-rule="evenodd" d="M225.314 130.949V161.505H189.841V130.949H225.314M225.672 130.59H189.482V161.864H225.672V130.59V130.59Z" fill="#E2E2EC"/>
<rect x="153.494" y="130.769" width="35.8276" height="30.9151" fill="white"/>
<path fill-rule="evenodd" clip-rule="evenodd" d="M189.142 130.949V161.505H153.669V130.949H189.142M189.5 130.59H153.311V161.864H189.5V130.59V130.59Z" fill="#E2E2EC"/>
<rect x="117.308" y="130.769" width="35.8276" height="30.9151" fill="white"/>
<path fill-rule="evenodd" clip-rule="evenodd" d="M152.956 130.949V161.505H117.483V130.949H152.956M153.314 130.59H117.125V161.864H153.314V130.59V130.59Z" fill="#E2E2EC"/>
<rect x="81.1216" y="130.769" width="35.8276" height="30.9151" fill="white"/>
<path fill-rule="evenodd" clip-rule="evenodd" d="M116.77 130.949V161.505H81.2973V130.949H116.77M117.128 130.59H80.939V161.864H117.128V130.59V130.59Z" fill="#E2E2EC"/>
<rect x="225.865" y="162.039" width="35.8276" height="30.9151" fill="white"/>
<path fill-rule="evenodd" clip-rule="evenodd" d="M261.503 162.222V192.775H226.03V162.222H261.503M261.861 161.864H225.672V193.133H261.861V161.864V161.864Z" fill="#E2E2EC"/>
<rect x="189.679" y="162.039" width="35.8276" height="30.9151" fill="white"/>
<path fill-rule="evenodd" clip-rule="evenodd" d="M225.314 162.222V192.775H189.841V162.222H225.314M225.672 161.864H189.482V193.133H225.672V161.864V161.864Z" fill="#E2E2EC"/>
<rect x="153.494" y="162.039" width="35.8276" height="30.9151" fill="white"/>
<path fill-rule="evenodd" clip-rule="evenodd" d="M189.142 162.222V192.775H153.669V162.222H189.142M189.5 161.864H153.311V193.133H189.5V161.864V161.864Z" fill="#E2E2EC"/>
<rect x="117.308" y="162.039" width="35.8276" height="30.9151" fill="white"/>
<path fill-rule="evenodd" clip-rule="evenodd" d="M152.956 162.222V192.775H117.483V162.222H152.956M153.314 161.864H117.125V193.133H153.314V161.864V161.864Z" fill="#E2E2EC"/>
<rect x="81.1216" y="162.039" width="35.8276" height="30.9151" fill="white"/>
<path fill-rule="evenodd" clip-rule="evenodd" d="M116.77 162.222V192.775H81.2973V162.222H116.77M117.128 161.864H80.939V193.133H117.128V161.864V161.864Z" fill="#E2E2EC"/>
<rect x="225.865" y="193.313" width="35.8276" height="30.9151" fill="white"/>
<path fill-rule="evenodd" clip-rule="evenodd" d="M261.503 193.492V224.049H226.03V193.492H261.503M261.861 193.134H225.672V224.407H261.861V193.134V193.134Z" fill="#E2E2EC"/>
<rect x="189.679" y="193.313" width="35.8276" height="30.9151" fill="white"/>
<path fill-rule="evenodd" clip-rule="evenodd" d="M225.314 193.492V224.049H189.841V193.492H225.314M225.672 193.134H189.482V224.407H225.672V193.134V193.134Z" fill="#E2E2EC"/>
<rect x="153.494" y="193.313" width="35.8276" height="30.9151" fill="white"/>
<path fill-rule="evenodd" clip-rule="evenodd" d="M189.142 193.492V224.049H153.669V193.492H189.142M189.5 193.134H153.311V224.407H189.5V193.134V193.134Z" fill="#E2E2EC"/>
<rect x="117.308" y="193.313" width="35.8276" height="30.9151" fill="white"/>
<path fill-rule="evenodd" clip-rule="evenodd" d="M152.956 193.492V224.049H117.483V193.492H152.956M153.314 193.134H117.125V224.407H153.314V193.134V193.134Z" fill="#E2E2EC"/>
<rect x="81.1216" y="193.313" width="35.8276" height="30.9151" fill="white"/>
<path fill-rule="evenodd" clip-rule="evenodd" d="M116.77 193.492V224.049H81.2973V193.492H116.77M117.128 193.134H80.939V224.407H117.128V193.134V193.134Z" fill="#E2E2EC"/>
<path fill-rule="evenodd" clip-rule="evenodd" d="M156.374 252.57C157.399 251.793 158.363 250.875 158.66 249.757C158.977 248.529 158.274 247.267 157.062 246.891C155.597 246.432 154.031 247.249 152.841 248.099C151.652 248.948 150.294 249.89 148.739 249.714C150.348 248.55 151.114 246.662 150.67 244.945C150.594 244.576 150.406 244.238 150.133 243.978C149.319 243.261 147.843 243.573 146.868 244.132C143.769 245.924 142.905 249.345 142.887 252.438C142.576 251.323 142.837 250.162 142.83 249.016C142.823 247.869 142.44 246.604 141.257 245.988C140.5 245.66 139.681 245.502 138.856 245.526C137.463 245.483 135.911 245.597 134.962 246.429C133.779 247.461 134.087 249.195 135.116 250.331C136.144 251.467 137.71 252.18 139.147 252.964C140.243 253.563 141.354 254.261 142.013 255.207C142.1 255.333 142.172 255.467 142.228 255.609L150.96 255.609C152.884 254.824 154.702 253.803 156.374 252.57V252.57Z" fill="#5156BE"/>
<circle cx="85.848" cy="72.9271" r="2.04238" fill="#FC6681"/>
<circle cx="90.9501" cy="72.9271" r="2.04238" fill="#FFD037"/>
<ellipse cx="157.969" cy="103.204" rx="2.04237" ry="2.04238" fill="#5156BE"/>
<ellipse cx="163.075" cy="103.204" rx="2.04237" ry="2.04238" fill="#5156BE"/>
<circle cx="267.171" cy="161.717" r="2.04237" fill="#5156BE"/>
<circle cx="268.193" cy="159.338" r="2.04237" fill="#5156BE"/>
<circle cx="269.214" cy="157.295" r="2.04237" fill="#5156BE"/>
<ellipse cx="231.111" cy="72.9271" rx="2.04237" ry="2.04238" fill="#5156BE"/>
<ellipse cx="236.213" cy="72.9271" rx="2.04237" ry="2.04238" fill="#5156BE"/>
<ellipse cx="241.319" cy="72.9271" rx="2.04237" ry="2.04238" fill="#5156BE"/>
<ellipse cx="246.422" cy="72.9271" rx="2.04237" ry="2.04238" fill="#5156BE"/>
<circle cx="231.111" cy="136.201" r="2.04237" fill="#5156BE"/>
<circle cx="236.213" cy="136.201" r="2.04237" fill="#5156BE"/>
<circle cx="241.319" cy="136.201" r="2.04237" fill="#5156BE"/>
<circle cx="246.422" cy="136.201" r="2.04237" fill="#5156BE"/>
<circle cx="121.909" cy="103.204" r="2.04238" fill="#FFD037"/>
<ellipse cx="85.848" cy="134.163" rx="2.04238" ry="2.04237" fill="#FC6681"/>
<path fill-rule="evenodd" clip-rule="evenodd" d="M265.409 166.841C267.648 168.163 271.142 169.023 275.567 166.181L275.524 172.473C275.839 176.773 281.175 192.506 281.175 192.506L284.937 205.441C287.633 214.58 289.025 224.052 289.072 233.58C289.072 236.736 289.366 239.99 290.272 242.437C292.275 247.851 289.484 254.828 288.273 257.425C286.234 258.114 284.161 258.698 282.063 259.174C281.874 259.217 281.689 259.274 281.508 259.342L281.483 259.306C281.483 259.306 275.836 261.546 273.327 261.238C271.457 261.008 270.285 263.341 271.751 265.057C270.368 265.416 268.949 265.67 267.992 265.552C265.484 265.244 264.226 269.558 268.935 270.79C273.643 272.023 300.319 270.79 300.319 270.79C301.862 270.018 302.688 268.3 302.326 266.612C304.375 266.534 305.654 266.473 305.654 266.473C305.654 266.473 310.363 264.323 305.654 258.457L305.404 258.647L304.397 255.684V251.682C304.397 251.682 310.359 223.017 308.478 219.627C306.597 216.237 305.654 198.978 305.654 198.978L306.292 180.177C307.994 176.666 308.865 171.162 309.306 166.859C309.946 164.806 310.35 162.686 310.509 160.542C310.585 159.531 310.646 158.47 310.685 157.37C310.701 154.958 310.306 152.56 309.517 150.28C311.309 147.7 314.222 143.712 316.626 141.354C320.392 137.656 319.449 133.339 319.449 133.339L317.88 122.858L314.114 104.982C314.587 100.023 313.552 97.167 312.409 95.5546C312.681 93.9529 312.935 92.3512 313.125 90.7424C313.96 83.7463 313.588 76.6587 312.025 69.7884C311.481 67.3913 310.739 64.9332 309.058 63.1166C307.156 61.0599 304.067 59.8058 303.358 57.1113C303.182 56.4413 303.175 55.7282 302.92 55.0833C302.233 53.3204 300.054 52.679 298.148 52.4497C294.751 52.0376 289.838 51.733 286.574 53.0588C284.295 53.9904 281.157 56.5559 279.91 59.3077C279.193 60.5726 278.86 61.9019 279.164 63.1524C279.285 63.6132 279.467 64.0556 279.705 64.4674C279.219 65.7854 278.972 67.1796 278.974 68.5844C278.998 73.5265 282.042 77.951 286.65 79.7387C286.725 79.9752 286.793 80.2081 286.85 80.4374C286.993 80.9895 287.096 81.5511 287.158 82.1179C287.097 83.1928 287.029 84.3 286.979 85.3928C286.943 85.5433 286.905 85.6914 286.864 85.8371C284.165 87.0322 281.534 88.3743 278.982 89.8575C280.866 92.6307 278.666 104.344 278.666 104.344C273.958 107.117 269.25 114.208 274.273 121.604C279.297 128.999 276.47 137.011 276.47 137.011L275.685 149.061V149.061V149.083L275.528 151.494H275.588L275.528 152.408L275.664 152.433V153.415C273.46 154.224 270.239 155.858 268.318 158.879C267.41 160.365 266.305 161.721 265.033 162.91C264.44 163.423 264.132 164.192 264.206 164.972C264.281 165.753 264.729 166.449 265.409 166.841V166.841ZM303.304 134.822C303.115 132.737 303.5 130.641 304.418 128.759C305.156 128.774 305.896 128.782 306.636 128.784C306.711 129.304 306.801 129.798 306.908 130.25C307.546 132.966 304.999 134.267 303.3 134.818L303.304 134.822Z" fill="url(#paint1_linear_23_1873)"/>
<path fill-rule="evenodd" clip-rule="evenodd" d="M303.924 254.279L305.131 257.902L301.19 261.843L288.204 264.864L278.842 263.957L279.447 260.636V260.636C279.812 259.18 280.96 258.05 282.421 257.708C286.27 256.805 293.608 254.742 295.149 251.879L303.924 254.279Z" fill="#DB8B8B"/>
<path opacity="0.1" fill-rule="evenodd" clip-rule="evenodd" d="M303.924 254.279L305.131 257.902L301.19 261.843L288.204 264.864L278.842 263.957L279.447 260.636V260.636C279.812 259.18 280.96 258.05 282.421 257.708C286.27 256.805 293.608 254.742 295.149 251.879L303.924 254.279Z" fill="black"/>
<path fill-rule="evenodd" clip-rule="evenodd" d="M281.877 263.036L283.69 260.621L281.877 257.823C281.877 257.823 276.441 260.016 274.026 259.715C271.611 259.414 270.403 263.656 274.933 264.85C279.462 266.043 305.131 264.85 305.131 264.85C305.131 264.85 309.66 262.736 305.131 256.999L301.19 260.02C301.19 260.02 294.547 263.642 291.225 263.04L281.877 263.036Z" fill="#2E3037"/>
<path fill-rule="evenodd" clip-rule="evenodd" d="M273.721 268.164L283.084 269.07L296.069 266.05L300.01 262.108L299.692 261.148L299.24 259.801L298.789 258.489L290.032 256.074C289.584 256.805 288.97 257.419 288.24 257.866C285.395 259.812 280.285 261.216 277.286 261.919C277.165 261.948 277.045 261.985 276.928 262.03C275.637 262.463 274.657 263.525 274.327 264.846L273.721 268.164Z" fill="#DB8B8B"/>
<path opacity="0.1" fill-rule="evenodd" clip-rule="evenodd" d="M273.721 268.164L283.084 269.071L296.069 266.05L300.01 262.109L299.692 261.148L296.087 263.922C296.087 263.922 289.444 267.544 286.122 266.942H276.742L278.555 264.527L276.928 262.019C275.637 262.453 274.657 263.514 274.327 264.835L273.721 268.164Z" fill="black"/>
<path fill-rule="evenodd" clip-rule="evenodd" d="M276.742 267.265L278.555 264.85L276.742 262.051C276.742 262.051 271.306 264.244 268.891 263.943C266.476 263.642 265.269 267.884 269.798 269.078C274.327 270.271 299.996 269.078 299.996 269.078C299.996 269.078 304.525 266.964 299.996 261.227L296.055 264.248C296.055 264.248 289.412 267.87 286.09 267.268L276.742 267.265Z" fill="#2E3037"/>
<path fill-rule="evenodd" clip-rule="evenodd" d="M284.292 92.1111C284.292 92.1111 298.789 93.6196 296.675 87.5821C296.084 85.8699 295.93 84.0372 296.227 82.2504C296.603 80.0351 297.479 77.9348 298.789 76.1089L285.198 78.223C286.012 79.5847 286.632 81.0537 287.04 82.5872C288.659 88.9902 284.292 92.1111 284.292 92.1111V92.1111Z" fill="#DB8B8B"/>
<path fill-rule="evenodd" clip-rule="evenodd" d="M309.055 160.964C309.055 160.964 308.754 173.95 305.733 180.292L305.128 198.712C305.128 198.712 306.034 215.625 307.847 218.946C309.66 222.268 303.906 250.352 303.906 250.352V255.186C303.906 255.186 294.231 258.808 291.522 254.58L294.242 218.642L293.035 168.815L309.055 160.964Z" fill="#474463"/>
<path opacity="0.1" fill-rule="evenodd" clip-rule="evenodd" d="M309.055 160.964C309.055 160.964 308.754 173.95 305.733 180.292L305.128 198.712C305.128 198.712 306.034 215.625 307.847 218.946C309.66 222.268 303.906 250.352 303.906 250.352V255.186C303.906 255.186 294.231 258.808 291.522 254.58L294.242 218.642L293.035 168.815L309.055 160.964Z" fill="black"/>
<path fill-rule="evenodd" clip-rule="evenodd" d="M315.095 119.289L316.909 124.123L318.417 134.392C318.831 137.294 317.818 140.218 315.697 142.243C312.075 145.865 307.241 153.415 307.241 153.415L301.508 136.216C301.508 136.216 307.241 135.309 306.342 131.382C305.443 127.455 305.733 120.181 305.733 120.181L315.095 119.289Z" fill="#FC6681"/>
<path opacity="0.05" fill-rule="evenodd" clip-rule="evenodd" d="M315.095 119.289L316.909 124.123L318.417 134.392C318.831 137.294 317.818 140.218 315.697 142.243C312.075 145.865 307.241 153.415 307.241 153.415L301.508 136.216C301.508 136.216 307.241 135.309 306.342 131.382C305.443 127.455 305.733 120.181 305.733 120.181L315.095 119.289Z" fill="black"/>
<path opacity="0.1" fill-rule="evenodd" clip-rule="evenodd" d="M288.254 257.87C292.128 263.961 298.158 260.51 299.226 259.822L298.789 258.489L290.032 256.074C289.589 256.804 288.98 257.419 288.254 257.87H288.254Z" fill="black"/>
<path fill-rule="evenodd" clip-rule="evenodd" d="M276.14 172.742C276.441 176.97 281.576 192.37 281.576 192.37L285.198 205.044C287.794 214.005 289.134 223.283 289.179 232.612C289.179 235.705 289.462 238.894 290.336 241.291C292.751 247.934 287.921 256.995 287.921 256.995C292.149 264.545 299.387 259.41 299.387 259.41V254.58C299.387 254.58 305.12 228.305 303.615 223.174C302.111 218.043 301.501 204.148 301.501 204.148V179.066C306.339 174.246 309.281 167.846 309.789 161.036C309.861 160.047 309.918 159.008 309.958 157.929C310.201 151.122 305.543 143.128 303.723 140.283C303.286 139.595 303.006 139.208 303.006 139.208L276.341 149.785L276.28 149.81V150.842V153.124L276.14 172.742Z" fill="#474463"/>
<path opacity="0.1" fill-rule="evenodd" clip-rule="evenodd" d="M285.198 78.2194C286.013 79.5812 286.632 81.0502 287.04 82.5836C290.022 83.7152 293.336 83.5937 296.227 82.2468C296.604 80.0328 297.48 77.9337 298.789 76.1089L285.198 78.2194Z" fill="black"/>
<ellipse cx="291.239" cy="70.9672" rx="11.7777" ry="11.7777" fill="#DB8B8B"/>
<path opacity="0.1" fill-rule="evenodd" clip-rule="evenodd" d="M276.14 153.114L276.269 153.139C288.932 155.744 304.83 142.544 304.83 142.544C304.404 141.825 304.036 141.074 303.73 140.297C303.293 139.609 303.013 139.222 303.013 139.222L276.348 149.799L276.28 150.856L276.14 153.114Z" fill="black"/>
<path fill-rule="evenodd" clip-rule="evenodd" d="M279.462 91.8066C279.462 91.8066 296.374 81.5374 301.81 85.7655L309.359 95.4399C309.359 95.4399 314.193 96.9484 313.301 106.612L316.909 124.123L306.038 126.842C306.038 126.842 299.696 132.883 304.83 141.641C304.83 141.641 288.824 154.927 276.14 152.211L277.047 138.018C277.047 138.018 279.766 130.167 274.933 122.919C270.099 115.67 274.632 108.726 279.161 106.006C279.161 106.003 281.271 94.5262 279.462 91.8066V91.8066Z" fill="#FC6681"/>
<path fill-rule="evenodd" clip-rule="evenodd" d="M278.555 153.415C278.555 153.415 272.213 154.622 269.192 159.456C268.321 160.906 267.258 162.231 266.032 163.397C265.473 163.904 265.185 164.645 265.256 165.397C265.326 166.148 265.746 166.823 266.39 167.217C268.787 168.65 272.696 169.542 277.634 165.486C286.104 158.549 278.555 153.415 278.555 153.415V153.415Z" fill="#DB8B8B"/>
<path opacity="0.1" fill-rule="evenodd" clip-rule="evenodd" d="M287.918 97.5467C287.918 97.5467 293.959 96.9412 295.467 112.646C296.976 128.351 299.409 131.973 299.409 131.973C299.409 131.973 300.917 140.128 297.295 144.959C293.672 149.789 286.725 160.058 286.725 160.058C286.725 160.058 279.175 162.172 277.667 154.622L287.029 137.108C287.029 137.108 288.538 131.067 284.915 126.839C281.293 122.611 278.555 94.5262 287.918 97.5467V97.5467Z" fill="black"/>
<path fill-rule="evenodd" clip-rule="evenodd" d="M287.301 96.6402C287.301 96.6402 293.342 96.0347 294.851 111.739C296.359 127.444 298.792 131.067 298.792 131.067C298.792 131.067 300.301 139.222 296.678 144.052C293.056 148.882 286.108 159.151 286.108 159.151C286.108 159.151 278.558 161.265 277.05 153.716L286.412 136.201C286.412 136.201 287.921 130.16 284.298 125.932C280.676 121.704 277.949 93.6197 287.301 96.6402V96.6402Z" fill="#FC6681"/>
<path opacity="0.1" fill-rule="evenodd" clip-rule="evenodd" d="M282.328 107.963C282.328 107.963 281.726 117.315 284.435 122.46C287.144 127.606 287.154 134.238 284.435 137.868" fill="black"/>
<path opacity="0.1" fill-rule="evenodd" clip-rule="evenodd" d="M280.819 96.4897C280.819 96.4897 283.234 94.0747 290.182 93.7701C297.13 93.4656 300.147 91.3551 300.147 91.3551" fill="black"/>
<path opacity="0.1" fill-rule="evenodd" clip-rule="evenodd" d="M297.617 55.7497C299.452 55.9754 301.559 56.606 302.211 58.3295C302.455 58.9637 302.462 59.6624 302.63 60.3181C303.315 62.9553 306.285 64.1843 308.116 66.2016C309.732 67.9932 310.445 70.3903 310.982 72.7372C312.49 79.4673 312.854 86.4033 312.057 93.2542C311.47 98.2705 310.266 103.194 309.929 108.224C309.592 113.255 310.208 118.547 312.957 122.775C314.139 124.592 315.701 126.19 316.54 128.19C314.809 129.594 312.419 129.795 310.187 129.87C307.59 129.958 304.993 129.958 302.394 129.87C301.032 129.823 299.61 129.734 298.434 129.046C297.564 128.489 296.849 127.721 296.356 126.814C294.869 124.305 294.497 121.26 294.565 118.336C294.633 115.412 295.091 112.503 295.145 109.575C295.174 107.981 295.048 106.286 294.131 104.982C293.468 104.039 292.461 103.405 291.601 102.642C288.377 99.7754 287.259 95.1818 287.151 90.8642C287.044 86.5465 287.757 82.2217 287.391 77.9184C287.248 76.2343 286.617 74.2099 284.962 73.8838C284.439 73.7799 283.887 73.8838 283.385 73.6832C282.056 73.1708 282.185 71.2968 281.805 69.9245C281.379 68.3837 280.064 67.1941 279.695 65.6247C278.824 61.9699 283.475 57.6093 286.524 56.3373C289.623 55.0402 294.35 55.3484 297.617 55.7497V55.7497Z" fill="black"/>
<path fill-rule="evenodd" clip-rule="evenodd" d="M297.918 55.1477C299.753 55.3735 301.86 56.0041 302.512 57.7276C302.755 58.3618 302.763 59.0605 302.931 59.7162C303.615 62.3534 306.586 63.5824 308.417 65.5997C310.033 67.3912 310.746 69.7883 311.283 72.1353C312.791 78.8654 313.154 85.8014 312.358 92.6522C311.771 97.6686 310.567 102.592 310.23 107.622C309.893 112.653 310.509 117.945 313.258 122.173C314.44 123.99 316.002 125.588 316.841 127.588C315.11 128.992 312.72 129.193 310.488 129.268C307.891 129.356 305.293 129.356 302.694 129.268C301.333 129.221 299.91 129.132 298.735 128.444C297.865 127.887 297.15 127.119 296.657 126.212C295.17 123.703 294.797 120.658 294.865 117.734C294.933 114.81 295.392 111.901 295.446 108.973C295.475 107.379 295.349 105.684 294.432 104.38C293.769 103.437 292.762 102.803 291.902 102.04C288.677 99.1734 287.559 94.5799 287.452 90.2622C287.344 85.9446 288.057 81.6198 287.692 77.3164C287.549 75.6324 286.918 73.6079 285.263 73.2819C284.739 73.178 284.188 73.2819 283.686 73.0812C282.357 72.5688 282.486 70.6948 282.106 69.3225C281.68 67.7818 280.365 66.5922 279.995 65.0228C279.125 61.368 283.776 57.0073 286.825 55.7353C289.924 54.4347 294.65 54.7428 297.918 55.1477V55.1477Z" fill="#472727"/>
</g>
<defs>
<linearGradient id="paint0_linear_23_1873" x1="273.636" y1="249.284" x2="273.636" y2="11.8959" gradientUnits="userSpaceOnUse">
<stop stop-color="#808080" stop-opacity="0.25098"/>
<stop offset="0.54" stop-color="#808080" stop-opacity="0.121569"/>
<stop offset="1" stop-color="#808080" stop-opacity="0.101961"/>
</linearGradient>
<linearGradient id="paint1_linear_23_1873" x1="361.552" y1="289.111" x2="361.552" y2="69.8636" gradientUnits="userSpaceOnUse">
<stop stop-color="#808080" stop-opacity="0.25098"/>
<stop offset="0.54" stop-color="#808080" stop-opacity="0.121569"/>
<stop offset="1" stop-color="#808080" stop-opacity="0.101961"/>
</linearGradient>
</defs>
</svg>
