<svg width="245" height="244" viewBox="0 0 245 244" fill="none" xmlns="http://www.w3.org/2000/svg">
<circle cx="122.5" cy="121.622" r="74" transform="rotate(-45 122.5 121.622)" stroke="#F2F2F2" stroke-width="24"/>
<circle cx="122.122" cy="121.622" r="74" transform="rotate(-45 122.122 121.622)" stroke="url(#paint0_linear_1_2)" stroke-width="24" stroke-dasharray="4 4"/>
<circle cx="122.119" cy="121.623" r="74" transform="rotate(168 122.119 121.623)" stroke="#F2F2F2" stroke-width="24" stroke-dasharray="86 9999"/>
<path d="M108.9 131.838C108.18 131.838 107.55 131.748 107.01 131.568C106.47 131.376 106.014 131.118 105.642 130.794C105.282 130.47 105.006 130.086 104.814 129.642C104.634 129.198 104.544 128.718 104.544 128.202C104.544 127.338 104.778 126.654 105.246 126.15C105.714 125.646 106.326 125.292 107.082 125.088V124.944C106.422 124.716 105.894 124.35 105.498 123.846C105.114 123.33 104.922 122.712 104.922 121.992C104.922 121.032 105.27 120.27 105.966 119.706C106.662 119.13 107.64 118.842 108.9 118.842C110.16 118.842 111.138 119.13 111.834 119.706C112.53 120.27 112.878 121.032 112.878 121.992C112.878 122.712 112.68 123.33 112.284 123.846C111.9 124.35 111.378 124.716 110.718 124.944V125.088C111.474 125.292 112.086 125.646 112.554 126.15C113.022 126.654 113.256 127.338 113.256 128.202C113.256 128.718 113.16 129.198 112.968 129.642C112.788 130.086 112.512 130.47 112.14 130.794C111.78 131.118 111.33 131.376 110.79 131.568C110.25 131.748 109.62 131.838 108.9 131.838ZM108.9 130.524C109.776 130.524 110.454 130.332 110.934 129.948C111.414 129.552 111.654 128.994 111.654 128.274V127.896C111.654 127.176 111.414 126.624 110.934 126.24C110.454 125.844 109.776 125.646 108.9 125.646C108.024 125.646 107.346 125.844 106.866 126.24C106.386 126.624 106.146 127.176 106.146 127.896V128.274C106.146 128.994 106.386 129.552 106.866 129.948C107.346 130.332 108.024 130.524 108.9 130.524ZM108.9 124.386C109.692 124.386 110.292 124.218 110.7 123.882C111.108 123.546 111.312 123.054 111.312 122.406V122.136C111.312 121.488 111.108 120.996 110.7 120.66C110.292 120.324 109.692 120.156 108.9 120.156C108.108 120.156 107.508 120.324 107.1 120.66C106.692 120.996 106.488 121.488 106.488 122.136V122.406C106.488 123.054 106.692 123.546 107.1 123.882C107.508 124.218 108.108 124.386 108.9 124.386ZM119.693 131.838C118.193 131.838 117.095 131.268 116.399 130.128C115.715 128.988 115.373 127.392 115.373 125.34C115.373 123.288 115.715 121.692 116.399 120.552C117.095 119.412 118.193 118.842 119.693 118.842C121.193 118.842 122.285 119.412 122.969 120.552C123.665 121.692 124.013 123.288 124.013 125.34C124.013 127.392 123.665 128.988 122.969 130.128C122.285 131.268 121.193 131.838 119.693 131.838ZM119.693 130.524C120.185 130.524 120.605 130.422 120.953 130.218C121.301 130.014 121.583 129.726 121.799 129.354C122.015 128.982 122.171 128.544 122.267 128.04C122.375 127.536 122.429 126.978 122.429 126.366V124.314C122.429 123.702 122.375 123.144 122.267 122.64C122.171 122.136 122.015 121.698 121.799 121.326C121.583 120.954 121.301 120.666 120.953 120.462C120.605 120.258 120.185 120.156 119.693 120.156C119.201 120.156 118.781 120.258 118.433 120.462C118.085 120.666 117.803 120.954 117.587 121.326C117.371 121.698 117.209 122.136 117.101 122.64C117.005 123.144 116.957 123.702 116.957 124.314V126.366C116.957 126.978 117.005 127.536 117.101 128.04C117.209 128.544 117.371 128.982 117.587 129.354C117.803 129.726 118.085 130.014 118.433 130.218C118.781 130.422 119.201 130.524 119.693 130.524ZM128.38 131.622L137.092 119.058H138.478L129.766 131.622H128.38ZM129.1 125.97C128.188 125.97 127.486 125.67 126.994 125.07C126.502 124.458 126.256 123.57 126.256 122.406C126.256 121.242 126.502 120.36 126.994 119.76C127.486 119.148 128.188 118.842 129.1 118.842C130.012 118.842 130.714 119.148 131.206 119.76C131.698 120.36 131.944 121.242 131.944 122.406C131.944 123.57 131.698 124.458 131.206 125.07C130.714 125.67 130.012 125.97 129.1 125.97ZM129.1 125.034C130.132 125.034 130.648 124.338 130.648 122.946V121.866C130.648 120.474 130.132 119.778 129.1 119.778C128.068 119.778 127.552 120.474 127.552 121.866V122.946C127.552 124.338 128.068 125.034 129.1 125.034ZM137.758 131.838C136.846 131.838 136.144 131.538 135.652 130.938C135.16 130.326 134.914 129.438 134.914 128.274C134.914 127.11 135.16 126.228 135.652 125.628C136.144 125.016 136.846 124.71 137.758 124.71C138.67 124.71 139.372 125.016 139.864 125.628C140.356 126.228 140.602 127.11 140.602 128.274C140.602 129.438 140.356 130.326 139.864 130.938C139.372 131.538 138.67 131.838 137.758 131.838ZM137.758 130.902C138.79 130.902 139.306 130.206 139.306 128.814V127.734C139.306 126.342 138.79 125.646 137.758 125.646C136.726 125.646 136.21 126.342 136.21 127.734V128.814C136.21 130.206 136.726 130.902 137.758 130.902Z" fill="#ADB5BD"/>
<defs>
<linearGradient id="paint0_linear_1_2" x1="241.804" y1="84.3224" x2="63.0788" y2="31.1091" gradientUnits="userSpaceOnUse">
<stop stop-color="#34C38F"/>
<stop offset="0.0635638" stop-color="#34C38F"/>
<stop offset="1" stop-color="#5156BE"/>
</linearGradient>
</defs>
</svg>
