<svg width="20" height="20" viewBox="0 0 20 20" fill="none" xmlns="http://www.w3.org/2000/svg">
<path fill-rule="evenodd" clip-rule="evenodd" d="M13.8967 6.19406C13.9559 6.13335 14.0267 6.08492 14.105 6.05161C14.1833 6.01829 14.2675 6.00076 14.3527 6.00002C14.4379 5.99929 14.5224 6.01537 14.6013 6.04734C14.6801 6.0793 14.7518 6.1265 14.812 6.18618C14.8723 6.24587 14.9199 6.31684 14.9522 6.39496C14.9845 6.47308 15.0007 6.55679 15 6.64119C14.9992 6.72559 14.9815 6.809 14.9479 6.88656C14.9143 6.96411 14.8654 7.03425 14.8041 7.09289L9.02851 12.8139C8.90817 12.9331 8.74497 13 8.57481 13C8.40464 13 8.24145 12.9331 8.1211 12.8139L6.19591 10.9069C6.13462 10.8482 6.08573 10.7781 6.0521 10.7006C6.01847 10.623 6.00076 10.5396 6.00002 10.4552C5.99928 10.3708 6.01552 10.2871 6.04779 10.209C6.08005 10.1308 6.1277 10.0599 6.18796 10.0002C6.24821 9.94049 6.31986 9.89329 6.39873 9.86133C6.4776 9.82937 6.5621 9.81329 6.64731 9.81402C6.73251 9.81475 6.81672 9.83229 6.89502 9.8656C6.97331 9.89892 7.04412 9.94734 7.10332 10.0081L8.57481 11.4656L13.8967 6.19406Z" fill="black"/>
<path fill-rule="evenodd" clip-rule="evenodd" d="M20 0H0V20H20V0ZM19 1H1V19H19V1Z" fill="#ADB5BD"/>
</svg>
