<svg width="56" height="56" viewBox="0 0 56 56" fill="none" xmlns="http://www.w3.org/2000/svg">
<mask id="mask0_1_265" style="mask-type:luminance" maskUnits="userSpaceOnUse" x="0" y="0" width="56" height="56">
<rect width="56" height="56" fill="white"/>
</mask>
<g mask="url(#mask0_1_265)">
<path fill-rule="evenodd" clip-rule="evenodd" d="M30.3333 44.3333V35H37.3333L28 23.3333L18.6666 35H25.6666V44.3333H30.3333Z" fill="#74788D"/>
<path fill-rule="evenodd" clip-rule="evenodd" d="M16.3333 44.3333H21V39.6667H16.3333C12.474 39.6667 9.33329 36.526 9.33329 32.6667C9.33329 29.3907 12.131 26.236 15.5703 25.6317L16.926 25.3937L17.374 24.0917C19.0143 19.306 23.0883 16.3333 28 16.3333C34.433 16.3333 39.6666 21.567 39.6666 28V30.3333H42C44.5736 30.3333 46.6666 32.4263 46.6666 35C46.6666 37.5737 44.5736 39.6667 42 39.6667H35V44.3333H42C47.1473 44.3333 51.3333 40.1473 51.3333 35C51.3333 30.6133 48.2883 26.922 44.2026 25.928C43.183 17.8967 36.3066 11.6667 28 11.6667C21.5693 11.6667 15.9833 15.4257 13.433 21.35C8.42096 22.848 4.66663 27.58 4.66663 32.6667C4.66663 39.0997 9.90029 44.3333 16.3333 44.3333V44.3333Z" fill="#74788D"/>
</g>
</svg>
