<svg width="40" height="40" viewBox="0 0 40 40" fill="none" xmlns="http://www.w3.org/2000/svg">
<mask id="mask0_0_6089" style="mask-type:luminance" maskUnits="userSpaceOnUse" x="0" y="0" width="40" height="40">
<rect width="40" height="40" fill="white"/>
</mask>
<g mask="url(#mask0_0_6089)">
<path fill-rule="evenodd" clip-rule="evenodd" d="M10.8333 16.6668C10.4617 16.6668 10.105 16.7235 9.75 16.7751C9.865 16.3885 9.98333 15.9951 10.1733 15.6418C10.3633 15.1285 10.66 14.6835 10.955 14.2351C11.2017 13.7501 11.6367 13.4218 11.9567 13.0068C12.2917 12.6035 12.7483 12.3351 13.11 12.0001C13.465 11.6501 13.93 11.4751 14.3 11.2285C14.6867 11.0068 15.0233 10.7618 15.3833 10.6451C15.73 10.5018 16.0333 10.3785 16.2817 10.2751C16.785 10.0668 17.0717 9.9468 17.0717 9.9468L16.2633 6.7168C16.2633 6.7168 15.9 6.80346 15.2683 6.9568C14.95 7.0368 14.5617 7.13013 14.12 7.2418C13.6683 7.32513 13.1867 7.55346 12.65 7.7618C12.12 7.99846 11.5067 8.15846 10.9367 8.53846C10.3633 8.9018 9.70166 9.20513 9.11833 9.6918C8.55333 10.1935 7.87167 10.6285 7.36833 11.2668C6.81833 11.8635 6.275 12.4901 5.85333 13.2035C5.365 13.8835 5.03333 14.6301 4.68333 15.3685C4.36666 16.1068 4.11166 16.8618 3.90333 17.5951C3.50833 19.0651 3.33166 20.4618 3.26333 21.6568C3.20666 22.8535 3.24 23.8485 3.31 24.5685C3.335 24.9085 3.38166 25.2385 3.415 25.4668C3.44333 25.6485 3.45666 25.7468 3.45666 25.7468L3.5 25.7368C4.225 29.1235 7.23 31.6668 10.8333 31.6668C14.975 31.6668 18.3333 28.3085 18.3333 24.1668C18.3333 20.0251 14.975 16.6668 10.8333 16.6668ZM29.1667 16.6668C28.795 16.6668 28.4384 16.7235 28.0834 16.7751C28.1984 16.3885 28.3167 15.9951 28.5067 15.6418C28.6967 15.1285 28.9934 14.6835 29.2884 14.2351C29.535 13.7501 29.97 13.4218 30.29 13.0068C30.625 12.6035 31.0817 12.3351 31.4434 12.0001C31.7984 11.6501 32.2634 11.4751 32.6334 11.2285C33.02 11.0068 33.3567 10.7618 33.7167 10.6451C34.0634 10.5018 34.3667 10.3785 34.615 10.2751C35.1184 10.0668 35.405 9.9468 35.405 9.9468L34.5967 6.7168C34.5967 6.7168 34.2334 6.80346 33.6017 6.9568C33.2834 7.0368 32.895 7.13013 32.4534 7.2418C32.0017 7.32513 31.52 7.55346 30.9834 7.7618C30.455 8.00013 29.84 8.15846 29.27 8.54013C28.6967 8.90346 28.035 9.2068 27.4517 9.69346C26.8867 10.1951 26.205 10.6301 25.7017 11.2668C25.1517 11.8635 24.6084 12.4901 24.1867 13.2035C23.6984 13.8835 23.3667 14.6301 23.0167 15.3685C22.7 16.1068 22.445 16.8618 22.2367 17.5951C21.8417 19.0651 21.665 20.4618 21.5967 21.6568C21.54 22.8535 21.5734 23.8485 21.6434 24.5685C21.6684 24.9085 21.715 25.2385 21.7484 25.4668C21.7767 25.6485 21.79 25.7468 21.79 25.7468L21.8334 25.7368C22.5584 29.1235 25.5634 31.6668 29.1667 31.6668C33.3084 31.6668 36.6667 28.3085 36.6667 24.1668C36.6667 20.0251 33.3084 16.6668 29.1667 16.6668Z" fill="#2AB57D"/>
</g>
</svg>
