<svg width="14" height="14" viewBox="0 0 14 14" fill="none" xmlns="http://www.w3.org/2000/svg">
<mask id="mask0_208_14487" style="mask-type:luminance" maskUnits="userSpaceOnUse" x="0" y="0" width="14" height="14">
<rect width="14" height="14" fill="white"/>
</mask>
<g mask="url(#mask0_208_14487)">
<path fill-rule="evenodd" clip-rule="evenodd" d="M13.7812 7C13.7812 10.746 10.7449 13.7812 7 13.7812C3.25508 13.7812 0.21875 10.746 0.21875 7C0.21875 3.25618 3.25508 0.21875 7 0.21875C10.7449 0.21875 13.7812 3.25618 13.7812 7ZM7 8.36719C6.30533 8.36719 5.74219 8.93033 5.74219 9.625C5.74219 10.3197 6.30533 10.8828 7 10.8828C7.69467 10.8828 8.25781 10.3197 8.25781 9.625C8.25781 8.93033 7.69467 8.36719 7 8.36719ZM5.8058 3.84601L6.00863 7.56476C6.01812 7.73877 6.162 7.875 6.33626 7.875H7.66369C7.83795 7.875 7.98184 7.73877 7.99133 7.56476L8.19416 3.84601C8.20442 3.65805 8.05476 3.5 7.86653 3.5H6.1334C5.94517 3.5 5.79554 3.65805 5.8058 3.84601L5.8058 3.84601Z" fill="white"/>
</g>
</svg>
