<svg width="32" height="32" viewBox="0 0 32 32" fill="none" xmlns="http://www.w3.org/2000/svg">
<rect width="32" height="32" rx="16" fill="#FD625E"/>
<mask id="mask0_0_6094" style="mask-type:luminance" maskUnits="userSpaceOnUse" x="9" y="9" width="14" height="14">
<rect x="9" y="9" width="14" height="14" fill="white"/>
</mask>
<g mask="url(#mask0_0_6094)">
<path fill-rule="evenodd" clip-rule="evenodd" d="M21.4542 15.4751H16.105V17.0676H19.9025C19.71 19.2901 17.8608 20.2409 16.1108 20.2409C13.8767 20.2409 11.9167 18.4792 11.9167 16.0001C11.9167 13.6084 13.7833 11.7592 16.1167 11.7592C17.9192 11.7592 18.975 12.9084 18.975 12.9084L20.0833 11.7534C20.0833 11.7534 18.66 10.1667 16.0583 10.1667C12.745 10.1667 10.1842 12.9667 10.1842 16.0001C10.1842 18.9459 12.5933 21.8334 16.1458 21.8334C19.2667 21.8334 21.5417 19.6926 21.5417 16.5309C21.5417 15.8601 21.4542 15.4751 21.4542 15.4751V15.4751V15.4751Z" fill="white"/>
</g>
</svg>
