<svg width="80" height="56" viewBox="0 0 80 56" fill="none" xmlns="http://www.w3.org/2000/svg">
<mask id="mask0_16_375" style="mask-type:luminance" maskUnits="userSpaceOnUse" x="0" y="-24" width="80" height="80">
<rect y="-24" width="80" height="80" fill="white"/>
</mask>
<g mask="url(#mask0_16_375)">
<path fill-rule="evenodd" clip-rule="evenodd" d="M40.0001 -4C32.7701 -4 26.8867 1.88333 26.8867 9.11333H33.5534C33.5534 5.55666 36.4467 2.66667 40.0001 2.66667C43.5534 2.66667 46.4467 5.55666 46.4467 9.11333C46.4467 11.1067 44.8434 12.5533 42.3934 14.5333C41.5434 15.2233 40.7401 15.88 40.0901 16.53C36.7634 19.8533 36.6667 23.3833 36.6667 23.7767V26H43.3334L43.3301 23.89C43.3334 23.8367 43.44 22.6033 44.8001 21.2467C45.3 20.7467 45.93 20.2467 46.5834 19.72C49.18 17.6167 53.1101 14.44 53.1101 9.11333C53.1134 1.88333 47.2301 -4 40.0001 -4V-4ZM36.6667 29.3333H43.3334V36H36.6667V29.3333Z" fill="#5156BE" fill-opacity="0.0980392"/>
<path fill-rule="evenodd" clip-rule="evenodd" d="M39.9998 -17.3334C21.6198 -17.3334 6.6665 -2.38004 6.6665 16C6.6665 34.38 21.6198 49.3333 39.9998 49.3333C58.3798 49.3333 73.3332 34.38 73.3332 16C73.3332 -2.38004 58.3798 -17.3334 39.9998 -17.3334V-17.3334ZM39.9999 42.6666C25.2965 42.6666 13.3332 30.7033 13.3332 15.9999C13.3332 1.29662 25.2965 -10.6667 39.9999 -10.6667C54.7032 -10.6667 66.6665 1.29661 66.6665 15.9999C66.6665 30.7033 54.7032 42.6666 39.9999 42.6666V42.6666Z" fill="#5156BE" fill-opacity="0.0980392"/>
</g>
</svg>
