<svg width="16" height="14" viewBox="0 0 16 14" fill="none" xmlns="http://www.w3.org/2000/svg">
<mask id="mask0_208_14493" style="mask-type:luminance" maskUnits="userSpaceOnUse" x="0" y="0" width="16" height="14">
<rect width="15.75" height="14" fill="white"/>
</mask>
<g mask="url(#mask0_208_14493)">
<path fill-rule="evenodd" clip-rule="evenodd" d="M15.5296 6.66936L12.6396 2.33445C12.3962 1.96932 11.9864 1.75001 11.5476 1.75L4.20243 1.75C3.7636 1.75 3.3538 1.96932 3.11038 2.33445L0.220445 6.66936C0.0767016 6.88495 -2.81632e-06 7.13827 1.04308e-07 7.39739L0 10.9375C0 11.6624 0.587617 12.25 1.3125 12.25H14.4375C15.1624 12.25 15.75 11.6624 15.75 10.9375V7.39739C15.75 7.13825 15.6733 6.88494 15.5295 6.66935L15.5296 6.66936ZM4.43656 3.5H11.3134L13.6468 7H10.2812L9.40623 8.75H6.34373L5.46873 7H2.10321L4.43656 3.5Z" fill="white"/>
</g>
</svg>
