<svg width="12" height="12" viewBox="0 0 12 12" fill="none" xmlns="http://www.w3.org/2000/svg">
<path fill-rule="evenodd" clip-rule="evenodd" d="M8.54272 7.16665C8.58939 6.78165 8.62439 6.39665 8.62439 5.99998C8.62439 5.60331 8.58939 5.21831 8.54272 4.83331H10.5144C10.6077 5.20665 10.6661 5.59748 10.6661 5.99998C10.6661 6.40248 10.6077 6.79331 10.5144 7.16665M7.51013 10.41C7.86013 9.76248 8.12846 9.06248 8.31513 8.33331H10.036C9.47596 9.29581 8.58346 10.0425 7.51013 10.41ZM7.36435 7.16665H4.63435C4.57602 6.78165 4.54102 6.39665 4.54102 5.99998C4.54102 5.60331 4.57602 5.21248 4.63435 4.83331H7.36435C7.41685 5.21248 7.45768 5.60331 7.45768 5.99998C7.45768 6.39665 7.41685 6.78165 7.36435 7.16665ZM5.9993 10.6433C5.51513 9.94331 5.1243 9.16748 4.88513 8.33331H7.11346C6.8743 9.16748 6.48346 9.94331 5.9993 10.6433ZM3.66598 3.66666H1.96265C2.51681 2.69833 3.41515 1.95166 4.48265 1.59C4.13265 2.2375 3.87015 2.9375 3.66598 3.66666ZM1.96265 8.33331H3.66598C3.87015 9.06248 4.13265 9.76248 4.48265 10.41C3.41515 10.0425 2.51681 9.29581 1.96265 8.33331ZM1.48431 7.16665C1.39097 6.79331 1.33264 6.40248 1.33264 5.99998C1.33264 5.59748 1.39097 5.20665 1.48431 4.83331H3.45598C3.40931 5.21831 3.37431 5.60331 3.37431 5.99998C3.37431 6.39665 3.40931 6.78165 3.45598 7.16665M5.9993 1.35083C6.48346 2.05083 6.8743 2.8325 7.11346 3.66666H4.88513C5.1243 2.8325 5.51513 2.05083 5.9993 1.35083ZM10.036 3.66666H8.31513C8.12846 2.9375 7.86013 2.2375 7.51013 1.59C8.58346 1.9575 9.47596 2.69833 10.036 3.66666ZM5.99935 0.166656C2.77352 0.166656 0.166016 2.79166 0.166016 5.99999C0.166016 9.22165 2.77769 11.8333 5.99935 11.8333C9.22101 11.8333 11.8327 9.22165 11.8327 5.99999C11.8327 2.77833 9.22101 0.166656 5.99935 0.166656Z" fill="#5156BE"/>
</svg>
