<svg width="28" height="28" viewBox="0 0 28 28" fill="none" xmlns="http://www.w3.org/2000/svg">
<mask id="mask0_267_12894" style="mask-type:luminance" maskUnits="userSpaceOnUse" x="0" y="0" width="28" height="28">
<rect width="28" height="28" fill="white"/>
</mask>
<g mask="url(#mask0_267_12894)">
<path fill-rule="evenodd" clip-rule="evenodd" d="M23.3337 4.66675H7.00033C5.71349 4.66675 4.66699 5.71325 4.66699 7.00008V12.8334H7.00033V9.33342L14.467 14.9334C14.6747 15.0886 14.9208 15.1667 15.167 15.1667C15.4132 15.1667 15.6593 15.0886 15.867 14.9334L23.3337 9.33342V19.8334H14.0003V22.1667H23.3337C24.6205 22.1667 25.667 21.1203 25.667 19.8334V7.00008C25.667 5.71325 24.6205 4.66675 23.3337 4.66675ZM15.167 12.5418L7.77733 7.00009H22.5567L15.167 12.5418Z" fill="#5156BE"/>
<path fill-rule="evenodd" clip-rule="evenodd" d="M2.33301 14H10.4997V16.3333H2.33301V14ZM4.66634 17.5H11.6663V19.8333H4.66634V17.5ZM8.16634 21H12.833V23.3333H8.16634V21Z" fill="#5156BE"/>
</g>
</svg>
