<svg width="14" height="14" viewBox="0 0 14 14" fill="none" xmlns="http://www.w3.org/2000/svg">
<path fill-rule="evenodd" clip-rule="evenodd" d="M12.25 5.25V2.1123C12.25 1.88016 12.1579 1.65785 11.9938 1.49352L10.7562 0.256211C10.5921 0.0921484 10.3696 0 10.1374 0H2.625C2.14184 0 1.75 0.391836 1.75 0.875V5.25C0.783398 5.25 0 6.0334 0 7V10.0625C0 10.3042 0.195781 10.5 0.4375 10.5H1.75V13.125C1.75 13.6082 2.14184 14 2.625 14H11.375C11.8582 14 12.25 13.6082 12.25 13.125V10.5H13.5625C13.8042 10.5 14 10.3042 14 10.0625V7C14 6.0334 13.2166 5.25 12.25 5.25ZM10.5 12.25H3.5V9.625H10.5V12.25ZM10.5 6.125H3.5V1.75H8.75V3.0625C8.75 3.30422 8.94578 3.5 9.1875 3.5H10.5V6.125ZM11.8125 8.09375C11.4502 8.09375 11.1562 7.7998 11.1562 7.4375C11.1562 7.07492 11.4502 6.78125 11.8125 6.78125C12.1748 6.78125 12.4688 7.07492 12.4688 7.4375C12.4688 7.7998 12.1748 8.09375 11.8125 8.09375Z" fill="white"/>
</svg>
