<svg width="12" height="12" viewBox="0 0 12 12" fill="none" xmlns="http://www.w3.org/2000/svg">
<path fill-rule="evenodd" clip-rule="evenodd" d="M4.83333 0.75H1.33333C1.01133 0.75 0.75 1.01133 0.75 1.33333V4.83333C0.75 5.15533 1.01133 5.41667 1.33333 5.41667H4.83333C5.15533 5.41667 5.41667 5.15533 5.41667 4.83333V1.33333C5.41667 1.01133 5.15533 0.75 4.83333 0.75V0.75ZM4.24996 4.25001H1.91663V1.91667H4.24996V4.25001V4.25001ZM7.16671 5.41667H10.6667C10.9893 5.41667 11.25 5.15533 11.25 4.83333V1.33333C11.25 1.01133 10.9893 0.75 10.6667 0.75H7.16671C6.84412 0.75 6.58337 1.01133 6.58337 1.33333V4.83333C6.58337 5.15533 6.84412 5.41667 7.16671 5.41667V5.41667ZM7.75 1.91667H10.0833V4.25001H7.75V1.91667V1.91667ZM0.75 10.6667C0.75 10.9887 1.01133 11.25 1.33333 11.25H4.83333C5.15533 11.25 5.41667 10.9887 5.41667 10.6667V7.16666C5.41667 6.84466 5.15533 6.58333 4.83333 6.58333H1.33333C1.01133 6.58333 0.75 6.84466 0.75 7.16666V10.6667V10.6667ZM1.91663 7.75H4.24996V10.0833H1.91663V7.75V7.75ZM6.58337 10.6667C6.58337 10.9887 6.84412 11.25 7.16671 11.25H10.6667C10.9893 11.25 11.25 10.9887 11.25 10.6667V7.16666C11.25 6.84466 10.9893 6.58333 10.6667 6.58333H7.16671C6.84412 6.58333 6.58337 6.84466 6.58337 7.16666V10.6667V10.6667ZM7.75 7.75H10.0833V10.0833H7.75V7.75V7.75Z" fill="white"/>
</svg>
