<svg width="14" height="13" viewBox="0 0 14 13" fill="none" xmlns="http://www.w3.org/2000/svg">
<path fill-rule="evenodd" clip-rule="evenodd" d="M0.5 2.25H13.5C13.7762 2.25 14 2.02616 14 1.75V0.5C14 0.223844 13.7762 0 13.5 0H0.5C0.223844 0 0 0.223844 0 0.5V1.75C0 2.02616 0.223844 2.25 0.5 2.25V2.25ZM0.5 7.25H13.5C13.7762 7.25 14 7.02616 14 6.75V5.5C14 5.22384 13.7762 5 13.5 5H0.5C0.223844 5 0 5.22384 0 5.5V6.75C0 7.02616 0.223844 7.25 0.5 7.25V7.25ZM0.5 12.25H13.5C13.7762 12.25 14 12.0262 14 11.75V10.5C14 10.2238 13.7762 10 13.5 10H0.5C0.223844 10 0 10.2238 0 10.5V11.75C0 12.0262 0.223844 12.25 0.5 12.25V12.25Z" fill="#555B6D"/>
</svg>
