<svg width="24" height="24" viewBox="0 0 24 24" fill="none" xmlns="http://www.w3.org/2000/svg">
<mask id="mask0_3_255" style="mask-type:luminance" maskUnits="userSpaceOnUse" x="0" y="0" width="24" height="24">
<rect width="24" height="24" fill="white"/>
</mask>
<g mask="url(#mask0_3_255)">
<path fill-rule="evenodd" clip-rule="evenodd" d="M12 14.1953C11.8245 14.1953 11.6521 14.1491 11.5 14.0615L2.50001 8.86426C2.02162 8.58794 1.8578 7.97612 2.13412 7.49773C2.22188 7.34579 2.34807 7.2196 2.50001 7.13184L11.5 1.93848C11.8097 1.76074 12.1904 1.76074 12.5 1.93848L21.5 7.13184C21.9784 7.40816 22.1422 8.01998 21.8659 8.49837C21.7781 8.65031 21.652 8.7765 21.5 8.86426L12.5 14.0615C12.3479 14.1491 12.1755 14.1953 12 14.1953V14.1953Z" fill="#C1C0FF"/>
<path fill-rule="evenodd" clip-rule="evenodd" d="M21.5 11.1318L19.5359 9.99847L12.5 14.0615C12.1905 14.2399 11.8095 14.2399 11.5 14.0615L4.46412 9.99848L2.50001 11.1318C2.02162 11.4082 1.8578 12.02 2.13412 12.4984C2.22188 12.6503 2.34807 12.7765 2.50001 12.8643L11.5 18.0615C11.8095 18.2399 12.1905 18.2399 12.5 18.0615L21.5 12.8643C21.9784 12.5879 22.1422 11.9761 21.8659 11.4977C21.7781 11.3458 21.652 11.2196 21.5 11.1318V11.1318Z" fill="#A2A1FF"/>
<path fill-rule="evenodd" clip-rule="evenodd" d="M21.5 15.1318L19.5359 13.9985L12.5 18.0615C12.1905 18.2399 11.8095 18.2399 11.5 18.0615L4.46412 13.9985L2.50001 15.1318C2.02162 15.4082 1.8578 16.02 2.13412 16.4984C2.22188 16.6503 2.34807 16.7765 2.50001 16.8643L11.5 22.0615C11.8095 22.2399 12.1905 22.2399 12.5 22.0615L21.5 16.8643C21.9784 16.5879 22.1422 15.9761 21.8659 15.4977C21.7781 15.3458 21.652 15.2196 21.5 15.1318V15.1318Z" fill="#6563FF"/>
</g>
</svg>
