<svg width="192" height="192" viewBox="0 0 192 192" fill="none" xmlns="http://www.w3.org/2000/svg">
<path fill-rule="evenodd" clip-rule="evenodd" d="M27.1609 29.0883C10.3515 46.3788 0 69.9806 0 96C0 149.019 42.9807 192 96 192C140.475 192 177.886 161.756 188.789 120.713L95.0297 97.3359L95.1052 97.0327L27.1609 29.0883V29.0883Z" fill="#5156BE"/>
<path fill-rule="evenodd" clip-rule="evenodd" d="M192 96C192 104.195 190.973 112.151 189.041 119.745L97 96.7965V0.00512695C149.559 0.541504 192 43.3144 192 96V96Z" fill="#777ACA"/>
<path fill-rule="evenodd" clip-rule="evenodd" d="M27.8617 28.3748C45.2541 10.8512 69.3598 0 96 0V96.5132L27.8617 28.3748V28.3748Z" fill="#A8AADA"/>
<g filter="url(#filter0_d_10_1718)">
<path d="M143.552 50H137.744V48.536L140.372 46.232C140.82 45.84 141.148 45.488 141.356 45.176C141.564 44.856 141.668 44.512 141.668 44.144V43.988C141.668 43.62 141.548 43.34 141.308 43.148C141.068 42.948 140.776 42.848 140.432 42.848C140 42.848 139.672 42.972 139.448 43.22C139.224 43.46 139.064 43.752 138.968 44.096L137.6 43.568C137.688 43.288 137.812 43.024 137.972 42.776C138.132 42.52 138.332 42.296 138.572 42.104C138.82 41.912 139.108 41.76 139.436 41.648C139.764 41.536 140.14 41.48 140.564 41.48C141.004 41.48 141.396 41.544 141.74 41.672C142.084 41.792 142.372 41.964 142.604 42.188C142.844 42.412 143.024 42.676 143.144 42.98C143.272 43.284 143.336 43.616 143.336 43.976C143.336 44.328 143.28 44.648 143.168 44.936C143.056 45.224 142.904 45.5 142.712 45.764C142.52 46.02 142.296 46.268 142.04 46.508C141.784 46.74 141.512 46.976 141.224 47.216L139.46 48.668H143.552V50ZM150.807 44.768C150.807 45.368 150.715 45.936 150.531 46.472C150.355 47 150.123 47.488 149.835 47.936C149.547 48.376 149.223 48.772 148.863 49.124C148.511 49.468 148.159 49.76 147.807 50H145.671C146.159 49.648 146.599 49.308 146.991 48.98C147.383 48.652 147.723 48.32 148.011 47.984C148.307 47.648 148.547 47.3 148.731 46.94C148.923 46.572 149.067 46.176 149.163 45.752L149.067 45.728C148.987 45.888 148.891 46.044 148.779 46.196C148.675 46.348 148.547 46.48 148.395 46.592C148.243 46.704 148.067 46.796 147.867 46.868C147.667 46.932 147.435 46.964 147.171 46.964C146.819 46.964 146.495 46.904 146.199 46.784C145.903 46.664 145.643 46.492 145.419 46.268C145.203 46.036 145.031 45.764 144.903 45.452C144.783 45.132 144.723 44.772 144.723 44.372C144.723 43.948 144.795 43.56 144.939 43.208C145.083 42.856 145.287 42.552 145.551 42.296C145.815 42.04 146.131 41.84 146.499 41.696C146.875 41.552 147.295 41.48 147.759 41.48C148.239 41.48 148.667 41.56 149.043 41.72C149.419 41.872 149.739 42.092 150.003 42.38C150.267 42.66 150.467 43.004 150.603 43.412C150.739 43.812 150.807 44.264 150.807 44.768ZM147.759 45.74C148.207 45.74 148.555 45.62 148.803 45.38C149.051 45.132 149.175 44.78 149.175 44.324V44.144C149.175 43.688 149.051 43.34 148.803 43.1C148.555 42.852 148.207 42.728 147.759 42.728C147.319 42.728 146.971 42.852 146.715 43.1C146.467 43.34 146.343 43.688 146.343 44.144V44.324C146.343 44.78 146.467 45.132 146.715 45.38C146.971 45.62 147.319 45.74 147.759 45.74ZM153.179 50.132C152.851 50.132 152.607 50.052 152.447 49.892C152.295 49.724 152.219 49.512 152.219 49.256V49.04C152.219 48.784 152.295 48.572 152.447 48.404C152.607 48.236 152.851 48.152 153.179 48.152C153.515 48.152 153.759 48.236 153.911 48.404C154.063 48.572 154.139 48.784 154.139 49.04V49.256C154.139 49.512 154.063 49.724 153.911 49.892C153.759 50.052 153.515 50.132 153.179 50.132ZM161.517 50H155.709V48.536L158.337 46.232C158.785 45.84 159.113 45.488 159.321 45.176C159.529 44.856 159.633 44.512 159.633 44.144V43.988C159.633 43.62 159.513 43.34 159.273 43.148C159.033 42.948 158.741 42.848 158.397 42.848C157.965 42.848 157.637 42.972 157.413 43.22C157.189 43.46 157.029 43.752 156.933 44.096L155.565 43.568C155.653 43.288 155.777 43.024 155.937 42.776C156.097 42.52 156.297 42.296 156.537 42.104C156.785 41.912 157.073 41.76 157.401 41.648C157.729 41.536 158.105 41.48 158.529 41.48C158.969 41.48 159.361 41.544 159.705 41.672C160.049 41.792 160.337 41.964 160.569 42.188C160.809 42.412 160.989 42.676 161.109 42.98C161.237 43.284 161.301 43.616 161.301 43.976C161.301 44.328 161.245 44.648 161.133 44.936C161.021 45.224 160.869 45.5 160.677 45.764C160.485 46.02 160.261 46.268 160.005 46.508C159.749 46.74 159.477 46.976 159.189 47.216L157.425 48.668H161.517V50ZM164.32 50L170.128 41.624H171.52L165.712 50H164.32ZM164.896 46.232C164.216 46.232 163.696 46.032 163.336 45.632C162.984 45.224 162.808 44.632 162.808 43.856C162.808 43.08 162.984 42.492 163.336 42.092C163.696 41.684 164.216 41.48 164.896 41.48C165.576 41.48 166.092 41.684 166.444 42.092C166.796 42.492 166.972 43.08 166.972 43.856C166.972 44.632 166.796 45.224 166.444 45.632C166.092 46.032 165.576 46.232 164.896 46.232ZM164.896 45.32C165.392 45.32 165.64 44.94 165.64 44.18V43.532C165.64 42.772 165.392 42.392 164.896 42.392C164.4 42.392 164.152 42.772 164.152 43.532V44.18C164.152 44.94 164.4 45.32 164.896 45.32ZM170.944 50.144C170.272 50.144 169.756 49.944 169.396 49.544C169.044 49.136 168.868 48.544 168.868 47.768C168.868 46.992 169.044 46.404 169.396 46.004C169.756 45.596 170.272 45.392 170.944 45.392C171.624 45.392 172.14 45.596 172.492 46.004C172.852 46.404 173.032 46.992 173.032 47.768C173.032 48.544 172.852 49.136 172.492 49.544C172.14 49.944 171.624 50.144 170.944 50.144ZM170.944 49.232C171.44 49.232 171.688 48.852 171.688 48.092V47.444C171.688 46.684 171.44 46.304 170.944 46.304C170.448 46.304 170.2 46.684 170.2 47.444V48.092C170.2 48.852 170.448 49.232 170.944 49.232Z" fill="white"/>
</g>
<g filter="url(#filter1_d_10_1718)">
<path d="M49.092 25.8V24.516H51.396V18.564H51.288L49.464 20.724L48.48 19.896L50.556 17.424H52.944V24.516H54.864V25.8H49.092ZM61.7473 25.8H55.9393V24.336L58.5673 22.032C59.0153 21.64 59.3433 21.288 59.5513 20.976C59.7593 20.656 59.8633 20.312 59.8633 19.944V19.788C59.8633 19.42 59.7433 19.14 59.5033 18.948C59.2633 18.748 58.9713 18.648 58.6273 18.648C58.1953 18.648 57.8673 18.772 57.6433 19.02C57.4193 19.26 57.2593 19.552 57.1633 19.896L55.7953 19.368C55.8833 19.088 56.0073 18.824 56.1673 18.576C56.3273 18.32 56.5273 18.096 56.7673 17.904C57.0153 17.712 57.3033 17.56 57.6313 17.448C57.9593 17.336 58.3353 17.28 58.7593 17.28C59.1993 17.28 59.5913 17.344 59.9353 17.472C60.2793 17.592 60.5673 17.764 60.7993 17.988C61.0393 18.212 61.2193 18.476 61.3393 18.78C61.4673 19.084 61.5313 19.416 61.5313 19.776C61.5313 20.128 61.4753 20.448 61.3633 20.736C61.2513 21.024 61.0993 21.3 60.9073 21.564C60.7153 21.82 60.4913 22.068 60.2353 22.308C59.9793 22.54 59.7073 22.776 59.4193 23.016L57.6553 24.468H61.7473V25.8ZM64.1786 25.932C63.8506 25.932 63.6066 25.852 63.4466 25.692C63.2946 25.524 63.2186 25.312 63.2186 25.056V24.84C63.2186 24.584 63.2946 24.372 63.4466 24.204C63.6066 24.036 63.8506 23.952 64.1786 23.952C64.5146 23.952 64.7586 24.036 64.9106 24.204C65.0626 24.372 65.1386 24.584 65.1386 24.84V25.056C65.1386 25.312 65.0626 25.524 64.9106 25.692C64.7586 25.852 64.5146 25.932 64.1786 25.932ZM72.1448 18.792H68.3768L68.1848 21.6H68.2688C68.3568 21.424 68.4528 21.26 68.5568 21.108C68.6608 20.956 68.7808 20.828 68.9168 20.724C69.0528 20.62 69.2088 20.54 69.3848 20.484C69.5688 20.42 69.7888 20.388 70.0448 20.388C70.4048 20.388 70.7408 20.448 71.0528 20.568C71.3648 20.688 71.6328 20.864 71.8568 21.096C72.0888 21.32 72.2688 21.596 72.3968 21.924C72.5328 22.252 72.6008 22.624 72.6008 23.04C72.6008 23.464 72.5328 23.852 72.3968 24.204C72.2608 24.556 72.0608 24.864 71.7968 25.128C71.5328 25.384 71.2088 25.584 70.8248 25.728C70.4408 25.872 70.0008 25.944 69.5048 25.944C69.1208 25.944 68.7768 25.9 68.4728 25.812C68.1688 25.732 67.9008 25.62 67.6688 25.476C67.4368 25.332 67.2368 25.168 67.0688 24.984C66.9008 24.792 66.7528 24.592 66.6248 24.384L67.7768 23.496C67.8728 23.656 67.9728 23.808 68.0768 23.952C68.1808 24.088 68.3008 24.208 68.4368 24.312C68.5808 24.416 68.7368 24.5 68.9048 24.564C69.0808 24.62 69.2848 24.648 69.5168 24.648C69.9888 24.648 70.3448 24.516 70.5848 24.252C70.8328 23.988 70.9568 23.628 70.9568 23.172V23.076C70.9568 22.644 70.8328 22.304 70.5848 22.056C70.3368 21.808 69.9928 21.684 69.5528 21.684C69.2088 21.684 68.9288 21.752 68.7128 21.888C68.4968 22.016 68.3248 22.156 68.1968 22.308L66.9008 22.128L67.2128 17.424H72.1448V18.792ZM75.3202 25.8L81.1282 17.424H82.5202L76.7122 25.8H75.3202ZM75.8962 22.032C75.2162 22.032 74.6962 21.832 74.3362 21.432C73.9842 21.024 73.8082 20.432 73.8082 19.656C73.8082 18.88 73.9842 18.292 74.3362 17.892C74.6962 17.484 75.2162 17.28 75.8962 17.28C76.5762 17.28 77.0922 17.484 77.4442 17.892C77.7962 18.292 77.9722 18.88 77.9722 19.656C77.9722 20.432 77.7962 21.024 77.4442 21.432C77.0922 21.832 76.5762 22.032 75.8962 22.032ZM75.8962 21.12C76.3922 21.12 76.6402 20.74 76.6402 19.98V19.332C76.6402 18.572 76.3922 18.192 75.8962 18.192C75.4002 18.192 75.1522 18.572 75.1522 19.332V19.98C75.1522 20.74 75.4002 21.12 75.8962 21.12ZM81.9442 25.944C81.2722 25.944 80.7562 25.744 80.3962 25.344C80.0442 24.936 79.8682 24.344 79.8682 23.568C79.8682 22.792 80.0442 22.204 80.3962 21.804C80.7562 21.396 81.2722 21.192 81.9442 21.192C82.6242 21.192 83.1402 21.396 83.4922 21.804C83.8522 22.204 84.0322 22.792 84.0322 23.568C84.0322 24.344 83.8522 24.936 83.4922 25.344C83.1402 25.744 82.6242 25.944 81.9442 25.944ZM81.9442 25.032C82.4402 25.032 82.6882 24.652 82.6882 23.892V23.244C82.6882 22.484 82.4402 22.104 81.9442 22.104C81.4482 22.104 81.2002 22.484 81.2002 23.244V23.892C81.2002 24.652 81.4482 25.032 81.9442 25.032Z" fill="white"/>
</g>
<g filter="url(#filter2_d_10_1718)">
<path d="M45.18 154.992H41.412L41.22 157.8H41.304C41.392 157.624 41.488 157.46 41.592 157.308C41.696 157.156 41.816 157.028 41.952 156.924C42.088 156.82 42.244 156.74 42.42 156.684C42.604 156.62 42.824 156.588 43.08 156.588C43.44 156.588 43.776 156.648 44.088 156.768C44.4 156.888 44.668 157.064 44.892 157.296C45.124 157.52 45.304 157.796 45.432 158.124C45.568 158.452 45.636 158.824 45.636 159.24C45.636 159.664 45.568 160.052 45.432 160.404C45.296 160.756 45.096 161.064 44.832 161.328C44.568 161.584 44.244 161.784 43.86 161.928C43.476 162.072 43.036 162.144 42.54 162.144C42.156 162.144 41.812 162.1 41.508 162.012C41.204 161.932 40.936 161.82 40.704 161.676C40.472 161.532 40.272 161.368 40.104 161.184C39.936 160.992 39.788 160.792 39.66 160.584L40.812 159.696C40.908 159.856 41.008 160.008 41.112 160.152C41.216 160.288 41.336 160.408 41.472 160.512C41.616 160.616 41.772 160.7 41.94 160.764C42.116 160.82 42.32 160.848 42.552 160.848C43.024 160.848 43.38 160.716 43.62 160.452C43.868 160.188 43.992 159.828 43.992 159.372V159.276C43.992 158.844 43.868 158.504 43.62 158.256C43.372 158.008 43.028 157.884 42.588 157.884C42.244 157.884 41.964 157.952 41.748 158.088C41.532 158.216 41.36 158.356 41.232 158.508L39.936 158.328L40.248 153.624H45.18V154.992ZM49.7953 162.144C49.3073 162.144 48.8713 162.084 48.4873 161.964C48.1113 161.836 47.7913 161.664 47.5273 161.448C47.2713 161.232 47.0753 160.976 46.9393 160.68C46.8033 160.384 46.7353 160.06 46.7353 159.708C46.7353 159.164 46.8833 158.724 47.1793 158.388C47.4833 158.044 47.8873 157.804 48.3913 157.668V157.572C47.9753 157.42 47.6353 157.184 47.3713 156.864C47.1153 156.544 46.9873 156.14 46.9873 155.652C46.9873 155.332 47.0473 155.04 47.1673 154.776C47.2953 154.512 47.4793 154.284 47.7193 154.092C47.9593 153.9 48.2513 153.752 48.5953 153.648C48.9473 153.536 49.3473 153.48 49.7953 153.48C50.2433 153.48 50.6393 153.536 50.9833 153.648C51.3353 153.752 51.6313 153.9 51.8713 154.092C52.1113 154.284 52.2913 154.512 52.4113 154.776C52.5393 155.04 52.6033 155.332 52.6033 155.652C52.6033 156.14 52.4713 156.544 52.2073 156.864C51.9513 157.184 51.6153 157.42 51.1993 157.572V157.668C51.7033 157.804 52.1033 158.044 52.3993 158.388C52.7033 158.724 52.8553 159.164 52.8553 159.708C52.8553 160.06 52.7873 160.384 52.6513 160.68C52.5153 160.976 52.3153 161.232 52.0513 161.448C51.7953 161.664 51.4753 161.836 51.0913 161.964C50.7153 162.084 50.2833 162.144 49.7953 162.144ZM49.7953 160.908C50.2513 160.908 50.5993 160.804 50.8393 160.596C51.0873 160.388 51.2113 160.096 51.2113 159.72V159.468C51.2113 159.092 51.0873 158.8 50.8393 158.592C50.5993 158.384 50.2513 158.28 49.7953 158.28C49.3393 158.28 48.9873 158.384 48.7393 158.592C48.4993 158.8 48.3793 159.092 48.3793 159.468V159.72C48.3793 160.096 48.4993 160.388 48.7393 160.596C48.9873 160.804 49.3393 160.908 49.7953 160.908ZM49.7953 157.104C50.2193 157.104 50.5433 157.008 50.7673 156.816C50.9913 156.624 51.1033 156.352 51.1033 156V155.808C51.1033 155.464 50.9913 155.196 50.7673 155.004C50.5433 154.812 50.2193 154.716 49.7953 154.716C49.3713 154.716 49.0473 154.812 48.8233 155.004C48.5993 155.196 48.4873 155.464 48.4873 155.808V156C48.4873 156.352 48.5993 156.624 48.8233 156.816C49.0473 157.008 49.3713 157.104 49.7953 157.104ZM55.1786 162.132C54.8506 162.132 54.6066 162.052 54.4466 161.892C54.2946 161.724 54.2186 161.512 54.2186 161.256V161.04C54.2186 160.784 54.2946 160.572 54.4466 160.404C54.6066 160.236 54.8506 160.152 55.1786 160.152C55.5146 160.152 55.7586 160.236 55.9106 160.404C56.0626 160.572 56.1386 160.784 56.1386 161.04V161.256C56.1386 161.512 56.0626 161.724 55.9106 161.892C55.7586 162.052 55.5146 162.132 55.1786 162.132ZM60.1088 157.008C60.5888 157.008 60.9408 156.912 61.1648 156.72C61.3968 156.52 61.5128 156.268 61.5128 155.964V155.88C61.5128 155.536 61.4008 155.268 61.1768 155.076C60.9608 154.876 60.6608 154.776 60.2768 154.776C59.9088 154.776 59.5808 154.864 59.2928 155.04C59.0128 155.216 58.7688 155.464 58.5608 155.784L57.5528 154.872C57.6968 154.68 57.8528 154.5 58.0208 154.332C58.1968 154.156 58.3968 154.008 58.6208 153.888C58.8448 153.76 59.0968 153.66 59.3768 153.588C59.6568 153.516 59.9728 153.48 60.3248 153.48C60.7488 153.48 61.1328 153.532 61.4768 153.636C61.8288 153.732 62.1288 153.876 62.3768 154.068C62.6328 154.26 62.8288 154.492 62.9648 154.764C63.1008 155.028 63.1688 155.328 63.1688 155.664C63.1688 155.936 63.1248 156.18 63.0368 156.396C62.9568 156.612 62.8408 156.8 62.6888 156.96C62.5448 157.12 62.3728 157.252 62.1728 157.356C61.9808 157.452 61.7768 157.524 61.5608 157.572V157.644C61.8008 157.692 62.0288 157.768 62.2448 157.872C62.4608 157.976 62.6448 158.116 62.7968 158.292C62.9568 158.46 63.0808 158.66 63.1688 158.892C63.2648 159.124 63.3128 159.388 63.3128 159.684C63.3128 160.052 63.2368 160.388 63.0848 160.692C62.9408 160.996 62.7328 161.256 62.4608 161.472C62.1888 161.688 61.8648 161.856 61.4888 161.976C61.1128 162.088 60.6928 162.144 60.2288 162.144C59.8208 162.144 59.4608 162.1 59.1488 162.012C58.8368 161.932 58.5608 161.82 58.3208 161.676C58.0888 161.532 57.8848 161.368 57.7088 161.184C57.5328 160.992 57.3808 160.792 57.2528 160.584L58.4168 159.696C58.5128 159.864 58.6168 160.02 58.7288 160.164C58.8408 160.3 58.9688 160.42 59.1128 160.524C59.2568 160.628 59.4208 160.708 59.6048 160.764C59.7888 160.82 59.9968 160.848 60.2288 160.848C60.6928 160.848 61.0488 160.736 61.2968 160.512C61.5448 160.288 61.6688 159.98 61.6688 159.588V159.504C61.6688 159.12 61.5328 158.828 61.2608 158.628C60.9968 158.428 60.6128 158.328 60.1088 158.328H59.2808V157.008H60.1088ZM66.3202 162L72.1282 153.624H73.5202L67.7122 162H66.3202ZM66.8962 158.232C66.2162 158.232 65.6962 158.032 65.3362 157.632C64.9842 157.224 64.8082 156.632 64.8082 155.856C64.8082 155.08 64.9842 154.492 65.3362 154.092C65.6962 153.684 66.2162 153.48 66.8962 153.48C67.5762 153.48 68.0922 153.684 68.4442 154.092C68.7962 154.492 68.9722 155.08 68.9722 155.856C68.9722 156.632 68.7962 157.224 68.4442 157.632C68.0922 158.032 67.5762 158.232 66.8962 158.232ZM66.8962 157.32C67.3922 157.32 67.6402 156.94 67.6402 156.18V155.532C67.6402 154.772 67.3922 154.392 66.8962 154.392C66.4002 154.392 66.1522 154.772 66.1522 155.532V156.18C66.1522 156.94 66.4002 157.32 66.8962 157.32ZM72.9442 162.144C72.2722 162.144 71.7562 161.944 71.3962 161.544C71.0442 161.136 70.8682 160.544 70.8682 159.768C70.8682 158.992 71.0442 158.404 71.3962 158.004C71.7562 157.596 72.2722 157.392 72.9442 157.392C73.6242 157.392 74.1402 157.596 74.4922 158.004C74.8522 158.404 75.0322 158.992 75.0322 159.768C75.0322 160.544 74.8522 161.136 74.4922 161.544C74.1402 161.944 73.6242 162.144 72.9442 162.144ZM72.9442 161.232C73.4402 161.232 73.6882 160.852 73.6882 160.092V159.444C73.6882 158.684 73.4402 158.304 72.9442 158.304C72.4482 158.304 72.2002 158.684 72.2002 159.444V160.092C72.2002 160.852 72.4482 161.232 72.9442 161.232Z" fill="white"/>
</g>
<defs>
<filter id="filter0_d_10_1718" x="133.6" y="39.48" width="43.4321" height="16.664" filterUnits="userSpaceOnUse" color-interpolation-filters="sRGB">
<feFlood flood-opacity="0" result="BackgroundImageFix"/>
<feColorMatrix in="SourceAlpha" type="matrix" values="0 0 0 0 0 0 0 0 0 0 0 0 0 0 0 0 0 0 127 0" result="hardAlpha"/>
<feOffset dy="2"/>
<feGaussianBlur stdDeviation="2"/>
<feColorMatrix type="matrix" values="0 0 0 0 0 0 0 0 0 0 0 0 0 0 0 0 0 0 0.498039 0"/>
<feBlend mode="normal" in2="BackgroundImageFix" result="effect1_dropShadow_10_1718"/>
<feBlend mode="normal" in="SourceGraphic" in2="effect1_dropShadow_10_1718" result="shape"/>
</filter>
<filter id="filter1_d_10_1718" x="44.48" y="15.28" width="43.5521" height="16.664" filterUnits="userSpaceOnUse" color-interpolation-filters="sRGB">
<feFlood flood-opacity="0" result="BackgroundImageFix"/>
<feColorMatrix in="SourceAlpha" type="matrix" values="0 0 0 0 0 0 0 0 0 0 0 0 0 0 0 0 0 0 127 0" result="hardAlpha"/>
<feOffset dy="2"/>
<feGaussianBlur stdDeviation="2"/>
<feColorMatrix type="matrix" values="0 0 0 0 0 0 0 0 0 0 0 0 0 0 0 0 0 0 0.498039 0"/>
<feBlend mode="normal" in2="BackgroundImageFix" result="effect1_dropShadow_10_1718"/>
<feBlend mode="normal" in="SourceGraphic" in2="effect1_dropShadow_10_1718" result="shape"/>
</filter>
<filter id="filter2_d_10_1718" x="35.66" y="151.48" width="43.3721" height="16.6641" filterUnits="userSpaceOnUse" color-interpolation-filters="sRGB">
<feFlood flood-opacity="0" result="BackgroundImageFix"/>
<feColorMatrix in="SourceAlpha" type="matrix" values="0 0 0 0 0 0 0 0 0 0 0 0 0 0 0 0 0 0 127 0" result="hardAlpha"/>
<feOffset dy="2"/>
<feGaussianBlur stdDeviation="2"/>
<feColorMatrix type="matrix" values="0 0 0 0 0 0 0 0 0 0 0 0 0 0 0 0 0 0 0.498039 0"/>
<feBlend mode="normal" in2="BackgroundImageFix" result="effect1_dropShadow_10_1718"/>
<feBlend mode="normal" in="SourceGraphic" in2="effect1_dropShadow_10_1718" result="shape"/>
</filter>
</defs>
</svg>
