<svg width="80" height="80" viewBox="0 0 80 80" fill="none" xmlns="http://www.w3.org/2000/svg">
<mask id="mask0_16_686" style="mask-type:luminance" maskUnits="userSpaceOnUse" x="0" y="0" width="80" height="80">
<rect width="80" height="80" fill="white"/>
</mask>
<g mask="url(#mask0_16_686)">
<path fill-rule="evenodd" clip-rule="evenodd" d="M40.0001 20C32.7701 20 26.8867 25.8833 26.8867 33.1133H33.5534C33.5534 29.5567 36.4467 26.6667 40.0001 26.6667C43.5534 26.6667 46.4467 29.5567 46.4467 33.1133C46.4467 35.1067 44.8434 36.5533 42.3934 38.5333C41.5434 39.2233 40.7401 39.88 40.0901 40.53C36.7634 43.8533 36.6667 47.3833 36.6667 47.7767V50H43.3334L43.3301 47.89C43.3334 47.8367 43.44 46.6033 44.8001 45.2467C45.3 44.7467 45.93 44.2467 46.5834 43.72C49.18 41.6167 53.1101 38.44 53.1101 33.1133C53.1134 25.8833 47.2301 20 40.0001 20V20ZM36.6667 53.3333H43.3334V60H36.6667V53.3333Z" fill="#5156BE" fill-opacity="0.0980392"/>
<path fill-rule="evenodd" clip-rule="evenodd" d="M40.0003 6.66663C21.6203 6.66663 6.66699 21.62 6.66699 40C6.66699 58.38 21.6203 73.3333 40.0003 73.3333C58.3803 73.3333 73.3337 58.38 73.3337 40C73.3337 21.62 58.3803 6.66663 40.0003 6.66663V6.66663ZM40.0003 66.6666C25.297 66.6666 13.3337 54.7033 13.3337 39.9999C13.3337 25.2966 25.297 13.3333 40.0003 13.3333C54.7037 13.3333 66.667 25.2966 66.667 39.9999C66.667 54.7033 54.7037 66.6666 40.0003 66.6666V66.6666Z" fill="#5156BE" fill-opacity="0.0980392"/>
</g>
</svg>
