<svg width="20" height="20" viewBox="0 0 20 20" fill="none" xmlns="http://www.w3.org/2000/svg">
<mask id="mask0_9_16696" style="mask-type:luminance" maskUnits="userSpaceOnUse" x="0" y="0" width="20" height="20">
<rect width="20" height="20" fill="white"/>
</mask>
<g mask="url(#mask0_9_16696)">
<circle cx="10" cy="10" r="2.5" stroke="#555B6D" stroke-width="2" stroke-linecap="round" stroke-linejoin="round"/>
<path fill-rule="evenodd" clip-rule="evenodd" d="M16.1667 12.5C15.9397 13.0142 16.0486 13.6148 16.4417 14.0167L16.4917 14.0667C16.8047 14.3793 16.9805 14.8035 16.9805 15.2458C16.9805 15.6882 16.8047 16.1124 16.4917 16.425C16.1791 16.738 15.7549 16.9138 15.3125 16.9138C14.8702 16.9138 14.446 16.738 14.1334 16.425L14.0834 16.375C13.6816 15.9819 13.0809 15.873 12.5667 16.1C12.063 16.3159 11.7356 16.8103 11.7334 17.3583V17.5C11.7334 18.4205 10.9872 19.1667 10.0667 19.1667C9.14623 19.1667 8.40004 18.4205 8.40004 17.5V17.425C8.38684 16.8606 8.02993 16.3616 7.50004 16.1667C6.9858 15.9397 6.3852 16.0486 5.98337 16.4417L5.93337 16.4917C5.62076 16.8046 5.19656 16.9805 4.75421 16.9805C4.31186 16.9805 3.88765 16.8046 3.57504 16.4917C3.26208 16.1791 3.08623 15.7549 3.08623 15.3125C3.08623 14.8702 3.26208 14.4459 3.57504 14.1333L3.62504 14.0833C4.0181 13.6815 4.127 13.0809 3.90004 12.5667C3.68415 12.0629 3.18974 11.7355 2.64171 11.7333H2.50004C1.57957 11.7333 0.833374 10.9871 0.833374 10.0667C0.833374 9.14619 1.57957 8.4 2.50004 8.4H2.57504C3.13948 8.3868 3.63849 8.0299 3.83337 7.5C4.06033 6.98576 3.95143 6.38516 3.55837 5.98334L3.50837 5.93334C3.19541 5.62072 3.01956 5.19652 3.01956 4.75417C3.01956 4.31182 3.19541 3.88762 3.50837 3.575C3.82099 3.26204 4.24519 3.08619 4.68754 3.08619C5.12989 3.08619 5.55409 3.26204 5.86671 3.575L5.91671 3.625C6.31853 4.01806 6.91913 4.12696 7.43337 3.9H7.50004C8.00377 3.68411 8.33119 3.1897 8.33337 2.64167V2.5C8.33337 1.57953 9.07957 0.833336 10 0.833336C10.9205 0.833336 11.6667 1.57953 11.6667 2.5V2.575C11.6689 3.12301 11.9963 3.61742 12.5 3.83332C13.0143 4.06029 13.6149 3.9514 14.0167 3.55834L14.0667 3.50834C14.3793 3.19537 14.8035 3.01952 15.2459 3.01952C15.6882 3.01952 16.1124 3.19537 16.425 3.50834C16.738 3.82095 16.9138 4.24515 16.9138 4.6875C16.9138 5.12985 16.738 5.55406 16.425 5.86667L16.375 5.91667C15.982 6.31849 15.8731 6.91909 16.1 7.43334V7.5C16.3159 8.00373 16.8103 8.33115 17.3584 8.33334H17.5C18.4205 8.33334 19.1667 9.07953 19.1667 10C19.1667 10.9205 18.4205 11.6667 17.5 11.6667H17.425C16.877 11.6689 16.3826 11.9963 16.1667 12.5V12.5Z" stroke="#555B6D" stroke-width="2" stroke-linecap="round" stroke-linejoin="round"/>
</g>
</svg>
