<svg width="16" height="14" viewBox="0 0 16 14" fill="none" xmlns="http://www.w3.org/2000/svg">
<mask id="mask0_0_7214" style="mask-type:luminance" maskUnits="userSpaceOnUse" x="0" y="0" width="16" height="14">
<rect width="15.75" height="14" fill="white"/>
</mask>
<g mask="url(#mask0_0_7214)">
<path fill-rule="evenodd" clip-rule="evenodd" d="M14.4402 4.68945L10.4453 4.10703L8.65978 0.486714C8.33986 -0.158598 7.4129 -0.166801 7.09025 0.486714L5.3047 4.10703L1.30978 4.68945C0.593372 4.79335 0.306263 5.67656 0.825794 6.18242L3.71603 8.99882L3.03243 12.9773C2.90939 13.6965 3.66681 14.2352 4.30118 13.8988L7.87501 12.0203L11.4488 13.8988C12.0832 14.2324 12.8406 13.6965 12.7176 12.9773L12.034 8.99882L14.9242 6.18242C15.4438 5.67656 15.1567 4.79335 14.4402 4.68945V4.68945ZM10.6258 8.53945L11.2739 12.3238L7.87504 10.5383L4.47621 12.3238L5.12426 8.53945L2.37347 5.85976L6.17426 5.30742L7.87504 1.86211L9.57582 5.30742L13.3766 5.85976L10.6258 8.53945V8.53945Z" fill="#495057"/>
</g>
</svg>
