<?xml version="1.0" encoding="utf-8"?><!DOCTYPE svg PUBLIC "-//W3C//DTD SVG 1.1//EN" "http://www.w3.org/Graphics/SVG/1.1/DTD/svg11.dtd"><svg version="1.1" xmlns="http://www.w3.org/2000/svg" xmlns:xlink="http://www.w3.org/1999/xlink" width="32" height="32" viewBox="0 0 32 32" data-tags="tag"><g fill="#444" transform="scale(0.03125 0.03125)"><path d="M448 128l428.189 428.189c25.061 25.061 25.188 65.634 0.241 90.58l-229.661 229.661c-24.909 24.909-65.501 24.838-90.58-0.241l-428.189-428.189v-256.012c0-35.59 28.648-63.988 63.988-63.988h256.012zM432 160h-239.73c-17.822 0-32.27 14.624-32.27 32.27v239.73l419.195 421.477c12.433 12.5 32.592 12.485 44.942 0.051l229.235-230.8c12.388-12.473 12.327-32.604-0.188-45.015l-421.184-417.713zM304 384v0c-44.183 0-80-35.817-80-80s35.817-80 80-80c44.183 0 80 35.817 80 80s-35.817 80-80 80zM304 352c26.51 0 48-21.49 48-48s-21.49-48-48-48c-26.51 0-48 21.49-48 48s21.49 48 48 48v0z" /></g></svg>