<svg width="14" height="14" viewBox="0 0 14 14" fill="none" xmlns="http://www.w3.org/2000/svg">
<mask id="mask0_2_249" style="mask-type:luminance" maskUnits="userSpaceOnUse" x="0" y="0" width="14" height="14">
<rect width="14" height="14" fill="white"/>
</mask>
<g mask="url(#mask0_2_249)">
<path fill-rule="evenodd" clip-rule="evenodd" d="M5.83329 10.5C6.91013 10.5 7.90004 10.1296 8.68988 9.51536L11.2542 12.0797L12.079 11.2549L9.51471 8.69052C10.1295 7.9001 10.5 6.91019 10.5 5.83335C10.5 3.26027 8.40638 1.16669 5.83329 1.16669C3.26021 1.16669 1.16663 3.26027 1.16663 5.83335C1.16663 8.40644 3.26021 10.5 5.83329 10.5V10.5ZM5.83328 2.33335C7.76353 2.33335 9.33328 3.9031 9.33328 5.83335C9.33328 7.7636 7.76353 9.33335 5.83328 9.33335C3.90303 9.33335 2.33328 7.7636 2.33328 5.83335C2.33328 3.9031 3.90303 2.33335 5.83328 2.33335V2.33335Z" fill="white"/>
<path fill-rule="evenodd" clip-rule="evenodd" d="M6.65698 5.00849C6.87806 5.23016 6.99998 5.52299 6.99998 5.83332H8.16665C8.16665 5.21207 7.92398 4.62641 7.48181 4.18366C6.59865 3.30166 5.0674 3.30166 4.18481 4.18366L5.00848 5.00966C5.45181 4.56749 6.21598 4.56866 6.65698 5.00849V5.00849Z" fill="white"/>
</g>
</svg>
