<svg width="13" height="14" viewBox="0 0 13 14" fill="none" xmlns="http://www.w3.org/2000/svg">
<path fill-rule="evenodd" clip-rule="evenodd" d="M7.32812 11.375H7.98438C8.16559 11.375 8.3125 11.2281 8.3125 11.0469V5.14062C8.3125 4.95941 8.16559 4.8125 7.98438 4.8125H7.32812C7.14691 4.8125 7 4.95941 7 5.14062V11.0469C7 11.2281 7.14691 11.375 7.32812 11.375ZM11.8125 2.1875H9.5591L8.62941 0.637109C8.39209 0.241652 7.96461 -0.000219358 7.5034 2.10968e-07L4.7466 2.35136e-09C4.28559 -2.7535e-05 3.85836 0.241819 3.62113 0.63711L2.6909 2.1875H0.4375C0.195875 2.1875 0 2.38338 0 2.625V3.0625C0 3.30412 0.195875 3.5 0.4375 3.5H0.875V12.6875C0.875 13.4124 1.46263 14 2.1875 14H10.0625C10.7874 14 11.375 13.4124 11.375 12.6875V3.5H11.8125C12.0541 3.5 12.25 3.30412 12.25 3.0625V2.625C12.25 2.38338 12.0541 2.1875 11.8125 2.1875ZM4.69877 1.39207C4.72851 1.34256 4.7821 1.31234 4.83986 1.3125H7.41017C7.46784 1.31243 7.5213 1.34264 7.55099 1.39207L8.02842 2.1875H4.22162L4.69877 1.39207ZM10.0625 12.6875H2.1875V3.5H10.0625V12.6875ZM4.26562 11.375H4.92188C5.10309 11.375 5.25 11.2281 5.25 11.0469V5.14062C5.25 4.95941 5.10309 4.8125 4.92188 4.8125H4.26562C4.08441 4.8125 3.9375 4.95941 3.9375 5.14062V11.0469C3.9375 11.2281 4.08441 11.375 4.26562 11.375Z" fill="white"/>
</svg>
