<svg width="32" height="32" viewBox="0 0 32 32" fill="none" xmlns="http://www.w3.org/2000/svg">
<rect width="32" height="32" rx="16" fill="#4BA6EF"/>
<mask id="mask0_0_6095" style="mask-type:luminance" maskUnits="userSpaceOnUse" x="9" y="9" width="14" height="14">
<rect x="9" y="9" width="14" height="14" fill="white"/>
</mask>
<g mask="url(#mask0_0_6095)">
<path fill-rule="evenodd" clip-rule="evenodd" d="M22.1017 12.4999C21.6525 12.7041 21.1683 12.8383 20.6667 12.9024C21.18 12.5933 21.5767 12.1033 21.7633 11.5141C21.2792 11.8058 20.7425 12.0099 20.1767 12.1266C19.7158 11.6249 19.0683 11.3333 18.3333 11.3333C16.9625 11.3333 15.8425 12.4533 15.8425 13.8358C15.8425 14.0341 15.8658 14.2266 15.9067 14.4074C13.83 14.3024 11.9808 13.3049 10.75 11.7941C10.5342 12.1616 10.4117 12.5933 10.4117 13.0483C10.4117 13.9174 10.8492 14.6874 11.5258 15.1249C11.1117 15.1249 10.7267 15.0083 10.3883 14.8333C10.3883 14.8333 10.3883 14.8333 10.3883 14.8508C10.3883 16.0641 11.2517 17.0791 12.395 17.3066C12.185 17.3649 11.9633 17.3941 11.7358 17.3941C11.5783 17.3941 11.4208 17.3766 11.2692 17.3474C11.5842 18.3333 12.5 19.0683 13.6025 19.0858C12.7508 19.7624 11.6717 20.1591 10.4933 20.1591C10.295 20.1591 10.0967 20.1474 9.89833 20.1241C11.0067 20.8358 12.325 21.2499 13.7367 21.2499C18.3333 21.2499 20.8592 17.4349 20.8592 14.1274C20.8592 14.0166 20.8592 13.9116 20.8533 13.8008C21.3433 13.4508 21.7633 13.0074 22.1017 12.4999V12.4999Z" fill="white"/>
</g>
</svg>
