<svg width="22" height="22" viewBox="0 0 22 22" fill="none" xmlns="http://www.w3.org/2000/svg">
<mask id="mask0_4_1770" style="mask-type:luminance" maskUnits="userSpaceOnUse" x="0" y="0" width="22" height="22">
<rect width="22" height="22" fill="white"/>
</mask>
<g mask="url(#mask0_4_1770)">
<path fill-rule="evenodd" clip-rule="evenodd" d="M11.0008 1.8269C5.94542 1.82782 1.83325 5.93999 1.83325 10.9945C1.83417 16.049 5.94633 20.1612 10.9999 20.1612C16.0553 20.1612 20.1675 16.049 20.1675 10.9945C20.1675 5.93999 16.0553 1.82782 11.0008 1.8269V1.8269ZM10.9999 18.3279C6.9574 18.3279 3.66748 15.0379 3.66656 10.9945C3.66656 6.95111 6.95648 3.6612 11.0008 3.66028C15.0442 3.66119 18.3341 6.95111 18.3341 10.9945C18.3341 15.0379 15.0442 18.3279 10.9999 18.3279V18.3279Z" fill="#FD625E"/>
<path fill-rule="evenodd" clip-rule="evenodd" d="M11.0008 7.33423L7.32959 11.0055H10.0842V14.6666H11.9175V11.0055H14.6712L11.0008 7.33423Z" fill="#FD625E"/>
</g>
</svg>
