<svg width="165" height="43" viewBox="0 0 165 43" fill="none" xmlns="http://www.w3.org/2000/svg">
<path d="M1 13.504C3.87488 12.629 9.62512 33.504 13.0001 33.504C16.3751 33.504 21.3751 42.254 24.5001 41.504C27.6251 40.754 32.375 1.37893 36 1.00396C39.625 0.628995 44 27.004 47 28.504C50 30.004 60.5001 30.004 60.5001 30.004C60.5001 30.004 69.7501 19.379 72.5001 19.004C75.2501 18.629 81.5 5.00396 81.5 5.00396H95C95 5.00396 103.75 24.129 106 24.004C108.25 23.879 115.375 11.004 118 11.004C120.625 11.004 124.625 34.754 128 35.504C131.375 36.254 142.5 35.504 142.5 35.504C142.5 35.504 150 40.879 152.5 41.004C155 41.129 164 37.504 164 37.504" stroke="#5156BE" stroke-opacity="0.85098" stroke-width="2"/>
</svg>
