<svg width="165" height="48" viewBox="0 0 165 48" fill="none" xmlns="http://www.w3.org/2000/svg">
<path d="M1 38.0018C6.5 35.5643 8.3125 20.9392 13.5 21.0016C18.6875 21.0642 19.375 17.5642 24 18.0017C28.625 18.4392 31.9375 45.8768 36 46.0018C40.0625 46.1268 44.0625 39.6267 48 39.0017C51.9375 38.3767 57.5 36.6267 60 35.0017C62.5 33.3767 67 10.1266 69.5 8.00162C72 5.87662 79.5 1.1891 82 1.0016C84.5 0.814106 91.375 17.1268 94.5 18.0017C97.625 18.8766 102.563 38.0018 105.5 38.0018C108.437 38.0017 113.312 22.2517 119 21.0016C124.688 19.7516 124.125 18.3142 128.5 18.0017C132.875 17.6892 137 46.3143 141 46.0018C145 45.6893 147.563 39.7518 151.5 39.0017C155.437 38.2517 164 40.0015 164 40.0015" stroke="#5156BE" stroke-opacity="0.85098" stroke-width="2"/>
</svg>
