<svg width="165" height="48" viewBox="0 0 165 48" fill="none" xmlns="http://www.w3.org/2000/svg">
<path d="M1 46.0343C6.70834 47.1593 8.95831 42.2843 13 42.0343C17.0417 41.7843 19.0417 37.9927 22.5 37.0343C25.9583 36.076 33.9583 35.201 37.5 33.5343C41.0417 31.8677 44.5 24.8677 48 25.0343C51.5 25.201 56.7916 40.451 59.5 39.5343C62.2084 38.6177 66.75 19.826 71.5 18.0343C76.25 16.2427 78.2917 1.65932 82.5 1.03432C86.7083 0.409317 91.7083 8.53431 94.5 8.03431C97.2917 7.53432 101.292 32.826 105.5 36.0343C109.708 39.2427 116.75 37.7843 120 39.5343C123.25 41.2843 125.125 46.7844 129 46.0343C132.875 45.2843 137.75 18.4093 141 18.0343C144.25 17.6593 150.75 21.9093 153.5 22.5343C156.25 23.1593 160.75 38.1593 164 39.5343" stroke="#5156BE" stroke-opacity="0.85098" stroke-width="2"/>
</svg>
