<svg width="165" height="48" viewBox="0 0 165 48" fill="none" xmlns="http://www.w3.org/2000/svg">
<path d="M1 40.0355C1 40.0355 11.1668 38.9938 13 39.0355C14.8333 39.0772 21.9166 47.1606 24.5 46.5356C27.0834 45.9106 33.6668 19.6605 36 18.5355C38.3333 17.4105 44.5416 21.9939 48 22.0355C51.4584 22.0771 56.6666 39.5772 59.5 39.0355C62.3334 38.4939 67.8334 18.7855 71 18.5355C74.1666 18.2855 78.3334 1.66052 82.5 1.03552C86.6666 0.410515 92.625 8.24382 95 8.03552C97.375 7.82721 102.083 33.2022 105 35.5355C107.917 37.8689 117.583 38.8689 120 40.0355C122.417 41.2022 127.125 47.4939 129.5 46.5356C131.875 45.5772 137 20.1606 140.5 19.5355C144 18.9105 153 22.0355 153 22.0355L163.5 39.0355" stroke="#5156BE" stroke-opacity="0.85098" stroke-width="2"/>
</svg>
