<svg width="18" height="17" viewBox="0 0 18 17" fill="none" xmlns="http://www.w3.org/2000/svg">
<path fill-rule="evenodd" clip-rule="evenodd" d="M0.666504 5.66669V9.00085H1.49984V14H0.666504V16.5H1.49984H3.99984H5.6665H8.1665H9.83317H12.3332H13.9998L16.4998 16.5009V16.5H17.3332V14H16.4998V9.00085H17.3332V5.66669L8.99984 0.666687L0.666504 5.66669V5.66669ZM3.99988 14V9.00085H5.66654V14H3.99988V14ZM8.1665 14V9.00085H9.83317V14H8.1665V14ZM13.9998 14H12.3331V9.00085H13.9998V14V14ZM10.6665 5.66668C10.6665 6.58668 9.9198 7.33335 8.9998 7.33335C8.0798 7.33335 7.33313 6.58668 7.33313 5.66668C7.33313 4.74668 8.0798 4.00002 8.9998 4.00002C9.9198 4.00002 10.6665 4.74668 10.6665 5.66668V5.66668Z" fill="#5156BE"/>
</svg>
