<svg width="16" height="18" viewBox="0 0 16 18" fill="none" xmlns="http://www.w3.org/2000/svg">
<path fill-rule="evenodd" clip-rule="evenodd" d="M13.8333 0.674988H3C1.995 0.674988 0.5 1.34082 0.5 3.17499V5.67499V10.675V13.175V14.8417C0.5 16.6758 1.995 17.3417 3 17.3417H15.5V15.675H3.01C2.625 15.665 2.16667 15.5125 2.16667 14.8417C2.16667 14.7575 2.17417 14.6825 2.18667 14.6142C2.28 14.135 2.6725 14.0167 3.00917 14.0083H14.6667C14.6817 14.0083 14.6925 14.0008 14.7075 14H15.5V13.175V11.5V2.34165C15.5 1.42249 14.7525 0.674988 13.8333 0.674988V0.674988ZM13.8333 12.3417H2.16663V10.675V5.67499V3.17499C2.16663 2.50333 2.62496 2.35166 2.99996 2.34166H8.83329V8.17499L10.5 7.34166L12.1666 8.17499V2.34166H13.8333V11.5V12.3417V12.3417Z" fill="#5156BE"/>
</svg>
