<svg width="48" height="48" viewBox="0 0 48 48" fill="none" xmlns="http://www.w3.org/2000/svg">
<rect width="48" height="48" rx="24" fill="#5156BE" fill-opacity="0.247059"/>
<mask id="mask0_268_14047" style="mask-type:luminance" maskUnits="userSpaceOnUse" x="12" y="12" width="24" height="24">
<rect x="12" y="12" width="24" height="24" fill="white"/>
</mask>
<g mask="url(#mask0_268_14047)">
<path fill-rule="evenodd" clip-rule="evenodd" d="M24 32C28.42 32 32 28.42 32 24C32 19.58 28.42 16 24 16C19.58 16 16 19.58 16 24C16 28.42 19.58 32 24 32ZM24 14C29.52 14 34 18.48 34 24C34 29.52 29.52 34 24 34C18.47 34 14 29.5 14 24C14 18.48 18.48 14 24 14ZM24.5 19V24.25L29 26.92L28.25 28.15L23 25V19H24.5Z" fill="#5156BE"/>
</g>
</svg>
