<svg width="48" height="48" viewBox="0 0 48 48" fill="none" xmlns="http://www.w3.org/2000/svg">
<rect width="48" height="48" rx="24" fill="#5156BE" fill-opacity="0.247059"/>
<mask id="mask0_0_5897" style="mask-type:luminance" maskUnits="userSpaceOnUse" x="12" y="12" width="24" height="24">
<rect x="12" y="12" width="24" height="24" fill="white"/>
</mask>
<g mask="url(#mask0_0_5897)">
<path fill-rule="evenodd" clip-rule="evenodd" d="M16.93 15.9299C15.12 17.7399 14 20.2399 14 22.9999C14 25.7599 15.12 28.2599 16.93 30.0699L18.34 28.6599C16.89 27.2199 16 25.2199 16 22.9999C16 20.7899 16.89 18.7799 18.34 17.3399L16.93 15.9299ZM31.07 15.9299L29.66 17.3399C31.11 18.7799 32 20.7899 32 22.9999C32 25.2199 31.11 27.2199 29.66 28.6599L31.07 30.0699C32.88 28.2599 34 25.7599 34 22.9999C34 20.2399 32.88 17.7399 31.07 15.9299ZM19.76 18.7599C18.67 19.8499 18 21.3499 18 22.9999C18 24.6499 18.67 26.1499 19.76 27.2399L21.17 25.8299C20.45 25.1099 20 24.1099 20 22.9999C20 21.8899 20.45 20.8899 21.17 20.1699L19.76 18.7599ZM28.24 18.7599L26.83 20.1699C27.55 20.8899 28 21.8899 28 22.9999C28 24.1099 27.55 25.1099 26.83 25.8299L28.24 27.2399C29.33 26.1499 30 24.6499 30 22.9999C30 21.3499 29.33 19.8499 28.24 18.7599ZM24 20.9999C22.9 20.9999 22 21.8999 22 22.9999C22 24.0999 22.9 24.9999 24 24.9999C25.1 24.9999 26 24.0999 26 22.9999C26 21.8999 25.1 20.9999 24 20.9999ZM23 26.9999V30.9999H22C21.45 30.9999 21 31.4499 21 31.9999H14V33.9999H21C21 34.5499 21.45 34.9999 22 34.9999H26C26.55 34.9999 27 34.5499 27 33.9999H34V31.9999H27C27 31.4499 26.55 30.9999 26 30.9999H25V26.9999H23Z" fill="#5156BE"/>
</g>
</svg>
