<svg width="70" height="70" viewBox="0 0 70 70" fill="none" xmlns="http://www.w3.org/2000/svg">
<mask id="mask0_0_5900" style="mask-type:luminance" maskUnits="userSpaceOnUse" x="0" y="0" width="70" height="70">
<rect x="12.5332" y="0.47583" width="58" height="58" transform="rotate(12 12.5332 0.47583)" fill="white"/>
</mask>
<g mask="url(#mask0_0_5900)">
<path fill-rule="evenodd" clip-rule="evenodd" d="M33.112 43.1453C28.5498 42.1756 25.6274 37.6755 26.5971 33.1132C27.5669 28.551 32.067 25.6286 36.6292 26.5983C41.1915 27.568 44.1139 32.0681 43.1441 36.6304C42.1744 41.1926 37.6743 44.115 33.112 43.1453ZM51.9468 40.898C52.2021 40.1617 52.4338 39.4203 52.5996 38.6402C52.7654 37.8602 52.8603 37.065 52.9366 36.2412L58.7433 33.4483C59.2678 33.1892 59.5217 32.5761 59.3486 31.9957L56.3594 22.8119C56.1862 22.2315 55.5932 21.8831 55.0279 21.9853L48.6395 23.0981C47.6062 21.9149 46.5006 20.8399 45.137 19.9323L45.5938 13.4822C45.6199 12.8948 45.2139 12.3638 44.6229 12.2382L35.1675 10.2284C34.5766 10.1027 33.9897 10.4227 33.7746 10.9699L31.5684 17.0483C29.9536 17.3227 28.5063 17.8551 27.0811 18.5157L21.6976 14.9007C21.2227 14.5774 20.5393 14.6545 20.1451 15.1143L13.6789 22.2883C13.261 22.743 13.2672 23.4114 13.641 23.8615L17.8097 28.7747C17.5443 29.5584 17.3076 30.3234 17.1418 31.1034C16.976 31.8835 16.8861 32.655 16.8199 33.4315L10.9981 36.2954C10.4736 36.5545 10.1961 37.1626 10.3928 37.7479L13.382 46.9318C13.5552 47.5121 14.1532 47.8369 14.7135 47.7583L21.1069 46.622C22.1352 47.8288 23.2408 48.9038 24.6044 49.8113L24.1476 56.2614C24.1215 56.8489 24.5275 57.3799 25.1185 57.5055L34.5739 59.5153C35.1648 59.6409 35.7517 59.3209 35.9668 58.7737L38.173 52.6954C39.7928 52.3973 41.2351 51.8886 42.6653 51.2043L48.0438 54.8429C48.5237 55.1426 49.2021 55.0891 49.5963 54.6294L56.0625 47.4553C56.4567 46.9956 56.4742 46.3322 56.1004 45.8822L51.9468 40.898Z" fill="#5156BE"/>
</g>
</svg>
